<svg xmlns="http://www.w3.org/2000/svg" xmlns:xlink="http://www.w3.org/1999/xlink" width="388" height="342" viewBox="0 0 388 342" version="1.1"><title>new-fetchicons</title><desc>Created with Sketch.</desc><defs><path id="path-1" d="M0 47.5L47.5 47.5 47.5 0 0 0 0 47.5 0 47.5Z"/><path id="path-3" d="M0 47.5L47.5 47.5 47.5 0 0 0 0 47.5 0 47.5Z"/><path id="path-5" d="M0 0L47.5 0 47.5 47.5 0 47.5 0 0 0 0Z"/><path id="path-7" d="M0 47.5L47.5 47.5 47.5 0 0 0 0 47.5 0 47.5Z"/><path id="path-9" d="M0 47.5L47.5 47.5 47.5 0 0 0 0 47.5 0 47.5Z"/><path id="path-11" d="M0 47.5L47.5 47.5 47.5 0 0 0 0 47.5 0 47.5Z"/><path id="path-13" d="M0 47.5L47.5 47.5 47.5 0 0 0 0 47.5 0 47.5Z"/><path id="path-15" d="M0 47.5L47.5 47.5 47.5 0 0 0 0 47.5 0 47.5Z"/><path id="path-17" d="M0 47.5L47.5 47.5 47.5 0 0 0 0 47.5 0 47.5Z"/><path id="path-19" d="M0 47.5L47.5 47.5 47.5 0 0 0 0 47.5 0 47.5Z"/><path id="path-21" d="M0 47.5L47.5 47.5 47.5 0 0 0 0 47.5 0 47.5Z"/><path id="path-23" d="M0 47.5L47.5 47.5 47.5 0 0 0 0 47.5 0 47.5Z"/><path id="path-25" d="M0 47.5L47.5 47.5 47.5 0 0 0 0 47.5 0 47.5Z"/><path id="path-27" d="M0 47.5L47.5 47.5 47.5 0 0 0 0 47.5 0 47.5Z"/><path id="path-29" d="M0 47.5L47.5 47.5 47.5 0 0 0 0 47.5 0 47.5Z"/><path id="path-31" d="M0 47.5L47.5 47.5 47.5 0 0 0 0 47.5 0 47.5Z"/><path id="path-33" d="M0 47.5L47.5 47.5 47.5 0 0 0 0 47.5 0 47.5Z"/><path id="path-35" d="M0 47.5L47.5 47.5 47.5 0 0 0 0 47.5 0 47.5Z"/><path id="path-37" d="M0 47.5L47.5 47.5 47.5 0 0 0 0 47.5 0 47.5Z"/><path id="path-39" d="M0 47.5L47.5 47.5 47.5 0 0 0 0 47.5 0 47.5Z"/><path id="path-41" d="M0 47.5L47.5 47.5 47.5 0 0 0 0 47.5 0 47.5Z"/><path id="path-43" d="M0 47.5L47.5 47.5 47.5 0 0 0 0 47.5 0 47.5Z"/><path id="path-45" d="M0 47.5L47.5 47.5 47.5 0 0 0 0 47.5 0 47.5Z"/><path id="path-47" d="M0 47.5L47.5 47.5 47.5 0 0 0 0 47.5 0 47.5Z"/><path id="path-49" d="M0 47.5L47.5 47.5 47.5 0 0 0 0 47.5 0 47.5Z"/><path id="path-51" d="M0 47.5L47.5 47.5 47.5 0 0 0 0 47.5 0 47.5Z"/><path id="path-53" d="M0 47.5L47.5 47.5 47.5 0 0 0 0 47.5 0 47.5Z"/><path id="path-55" d="M0 47.5L47.5 47.5 47.5 0 0 0 0 47.5 0 47.5Z"/><path id="path-57" d="M0 47.5L47.5 47.5 47.5 0 0 0 0 47.5 0 47.5Z"/><path id="path-59" d="M0 47.5L47.5 47.5 47.5 0 0 0 0 47.5 0 47.5Z"/><path id="path-61" d="M0 47.5L47.5 47.5 47.5 0 0 0 0 47.5 0 47.5Z"/><path id="path-63" d="M0 47.5L47.5 47.5 47.5 0 0 0 0 47.5 0 47.5Z"/><path id="path-65" d="M0 47.5L47.5 47.5 47.5 0 0 0 0 47.5 0 47.5Z"/><path id="path-67" d="M0 47.5L47.5 47.5 47.5 0 0 0 0 47.5 0 47.5Z"/><path id="path-69" d="M0 47.5L47.5 47.5 47.5 0 0 0 0 47.5 0 47.5Z"/><path id="path-71" d="M0 47.5L47.5 47.5 47.5 0 0 0 0 47.5 0 47.5Z"/><path id="path-73" d="M0 47.5L47.5 47.5 47.5 0 0 0 0 47.5 0 47.5Z"/><path id="path-75" d="M0 47.5L47.5 47.5 47.5 0 0 0 0 47.5 0 47.5Z"/><path id="path-77" d="M0 47.5L47.5 47.5 47.5 0 0 0 0 47.5 0 47.5Z"/><path id="path-79" d="M0 47.5L47.5 47.5 47.5 0 0 0 0 47.5 0 47.5Z"/><path id="path-81" d="M0 47.5L47.5 47.5 47.5 0 0 0 0 47.5 0 47.5Z"/><path id="path-83" d="M0 47.5L47.5 47.5 47.5 0 0 0 0 47.5 0 47.5Z"/><path id="path-85" d="M10 20L5 20C2.24 20 0 17.76 0 15L0 15 0 5C0 2.24 2.24 0 5 0L5 0 40 0C42.76 0 45 2.24 45 5L45 5 45 15C45 17.76 42.76 20 40 20L40 20 10 20 10 20Z"/><path id="path-87" d="M0 47.5L47.5 47.5 47.5 0 0 0 0 47.5 0 47.5Z"/><path id="path-89" d="M0 47.5L47.5 47.5 47.5 0 0 0 0 47.5 0 47.5Z"/><path id="path-91" d="M0 47.5L47.5 47.5 47.5 0 0 0 0 47.5 0 47.5Z"/><path id="path-93" d="M0 20L0 2.5C0 2.5 0 0 2.5 0L2.5 0 15 0C15 0 17.5 0 17.5 2.5L17.5 2.5 17.5 20 0 20 0 20Z"/><path id="path-95" d="M0 47.5L47.5 47.5 47.5 0 0 0 0 47.5 0 47.5Z"/><path id="path-97" d="M0 47.5L47.5 47.5 47.5 0 0 0 0 47.5 0 47.5Z"/><path id="path-99" d="M0 47.5L47.5 47.5 47.5 0 0 0 0 47.5 0 47.5Z"/><path id="path-101" d="M0 47.5L47.5 47.5 47.5 0 0 0 0 47.5 0 47.5Z"/><path id="path-103" d="M0 47.5L47.5 47.5 47.5 0 0 0 0 47.5 0 47.5Z"/></defs><g id="Page-1" stroke="none" stroke-width="1" fill="none" fill-rule="evenodd"><g id="1" transform="translate(50.000000, -2.000000)"><g id="svg2"><g id="g12" transform="translate(23.750000, 23.750000) scale(1, -1) translate(-23.750000, -23.750000) "><g id="g14" transform="translate(7.500000, 3.750000)" fill="#FFE8B6"><path d="M0 20L16.25 36.25 32.5 20 32.5 0 0 0 0 20 0 20Z" id="path16"/></g><path d="M7.5 3.75L8.75 3.75 8.75 23.75 7.5 23.75 7.5 3.75 7.5 3.75Z" id="path18" fill="#FFCC4D"/><path d="M38.75 3.75L40 3.75 40 23.75 38.75 23.75 38.75 3.75 38.75 3.75Z" id="path20" fill="#FFCC4D"/><g id="g22"><g id="g24-Clipped"><mask id="mask-2" fill="white"><use xlink:href="#path-1"/></mask><g id="path28"/><g id="g24" mask="url(#mask-2)"><g transform="translate(5.000000, 1.250000)"><g id="g30" stroke-width="1" fill="none" transform="translate(1.250000, 21.250000)"><path d="M33.75 0C33.43 0 33.11 0.12 32.87 0.37L17.5 15.73 2.13 0.37C1.65-0.12 0.86-0.12 0.37 0.37 -0.12 0.86-0.12 1.65 0.37 2.13L16.62 18.38C17.11 18.87 17.9 18.87 18.38 18.38L34.63 2.13C35.12 1.65 35.12 0.86 34.63 0.37 34.39 0.12 34.07 0 33.75 0" id="path32" fill="#66757F"/></g><path d="M21.25 2.5L16.25 2.5 16.25 12.5 21.25 12.5 21.25 2.5 21.25 2.5Z" id="path34" fill="#C1694F"/><path d="M12.5 17.5L7.5 17.5 7.5 22.5 12.5 22.5 12.5 17.5 12.5 17.5Z" id="path36" fill="#55ACEE"/><path d="M30 17.5L25 17.5 25 22.5 30 22.5 30 17.5 30 17.5Z" id="path38" fill="#55ACEE"/><path d="M21.25 17.5L16.25 17.5 16.25 22.5 21.25 22.5 21.25 17.5 21.25 17.5Z" id="path40" fill="#55ACEE"/><path d="M12.5 7.5L7.5 7.5 7.5 12.5 12.5 12.5 12.5 7.5 12.5 7.5Z" id="path42" fill="#55ACEE"/><path d="M30 7.5L25 7.5 25 12.5 30 12.5 30 7.5 30 7.5Z" id="path44" fill="#55ACEE"/><g id="g46" stroke-width="1" fill="none"><path d="M37.5 1.25C37.5 0.56 36.94 0 36.25 0L1.25 0C0.56 0 0 0.56 0 1.25 0 1.94 0.56 2.5 1.25 2.5L36.25 2.5C36.94 2.5 37.5 1.94 37.5 1.25" id="path48" fill="#BCBEC0"/></g></g></g></g></g></g></g></g><g id="1" transform="translate(102.000000, 95.000000)"><g id="svg2"><g id="g12" transform="translate(23.750000, 23.750000) scale(1, -1) translate(-23.750000, -23.750000) "><g id="g14"><g id="g16-Clipped"><mask id="mask-4" fill="white"><use xlink:href="#path-3"/></mask><g id="path20"/><g id="g16" mask="url(#mask-4)"><g transform="translate(6.250000, 1.250000)"><g id="g22"><path d="M35 2.5C35 1.12 33.88 0 32.5 0L2.5 0C1.12 0 0 1.12 0 2.5L0 36.25C0 37.63 1.12 38.75 2.5 38.75L32.5 38.75C33.88 38.75 35 37.63 35 36.25L35 2.5 35 2.5Z" id="path24" fill="#C1694F"/></g><g id="g26" transform="translate(3.750000, 3.750000)"><path d="M27.5 1.25C27.5 0.56 26.94 0 26.25 0L1.25 0C0.56 0 0 0.56 0 1.25L0 30C0 30.69 0.56 31.25 1.25 31.25L26.25 31.25C26.94 31.25 27.5 30.69 27.5 30L27.5 1.25 27.5 1.25Z" id="path28" fill="#FFFFFF"/></g><g id="g30" transform="translate(6.250000, 32.500000)"><path d="M20 8.75L15 8.75C15 10.82 13.32 12.5 11.25 12.5 9.18 12.5 7.5 10.82 7.5 8.75L2.5 8.75C1.12 8.75 0 7.63 0 6.25L0 0 22.5 0 22.5 6.25C22.5 7.63 21.38 8.75 20 8.75" id="path32" fill="#CCD6DD"/></g><g id="g34" transform="translate(15.000000, 38.750000)"><path d="M5 2.5C5 1.12 3.88 0 2.5 0 1.12 0 0 1.12 0 2.5 0 3.88 1.12 5 2.5 5 3.88 5 5 3.88 5 2.5" id="path36" fill="#292F33"/></g><g id="g38" transform="translate(6.250000, 26.250000)"><path d="M13.75 1.25C13.75 0.56 13.19 0 12.5 0L1.25 0C0.56 0 0 0.56 0 1.25 0 1.94 0.56 2.5 1.25 2.5L12.5 2.5C13.19 2.5 13.75 1.94 13.75 1.25" id="path40" fill="#99AAB5"/></g><g id="g42" transform="translate(6.250000, 21.250000)"><path d="M22.5 1.25C22.5 0.56 21.94 0 21.25 0L1.25 0C0.56 0 0 0.56 0 1.25 0 1.94 0.56 2.5 1.25 2.5L21.25 2.5C21.94 2.5 22.5 1.94 22.5 1.25" id="path44" fill="#99AAB5"/></g><g id="g46" transform="translate(6.250000, 16.250000)"><path d="M22.5 1.25C22.5 0.56 21.94 0 21.25 0L1.25 0C0.56 0 0 0.56 0 1.25 0 1.94 0.56 2.5 1.25 2.5L21.25 2.5C21.94 2.5 22.5 1.94 22.5 1.25" id="path48" fill="#99AAB5"/></g><g id="g50" transform="translate(6.250000, 11.250000)"><path d="M22.5 1.25C22.5 0.56 21.94 0 21.25 0L1.25 0C0.56 0 0 0.56 0 1.25 0 1.94 0.56 2.5 1.25 2.5L21.25 2.5C21.94 2.5 22.5 1.94 22.5 1.25" id="path52" fill="#99AAB5"/></g><g id="g54" transform="translate(15.000000, 6.250000)"><path d="M13.75 1.25C13.75 0.56 13.19 0 12.5 0L1.25 0C0.56 0 0 0.56 0 1.25 0 1.94 0.56 2.5 1.25 2.5L12.5 2.5C13.19 2.5 13.75 1.94 13.75 1.25" id="path56" fill="#99AAB5"/></g></g></g></g></g></g></g></g><g id="1" transform="translate(-1.000000, 191.000000)"><g id="svg2"><g id="g12" transform="translate(23.750000, 23.750000) scale(1, -1) translate(-23.750000, -23.750000) "><g id="g14"><g id="g16-Clipped"><mask id="mask-6" fill="white"><use xlink:href="#path-5"/></mask><g id="path20"/><g id="g16" mask="url(#mask-6)"><g transform="translate(1.250000, 2.500000)"><g id="g22" transform="translate(0.000000, 1.250000)"><path d="M45 33.75C45 39.92 36.53 39.32 33.54 38.92 30.5 41.15 26.81 42.5 22.5 42.5 18.2 42.5 14.52 41.15 11.48 38.91 8.5 39.32 0 39.94 0 33.75 0 30.14 1.95 27.84 3.04 26.83 1.86 23.43 1.25 19.78 1.25 16.25 1.25 3.82 13.75 0 22.5 0 31.25 0 43.75 3.75 43.75 16.25 43.75 19.79 43.15 23.44 41.97 26.84 43.06 27.85 45 30.15 45 33.75" id="path24" fill="#BF6952"/></g><g id="g26" transform="translate(7.500000, 0.000000)"><path d="M15 20C14.95 20 14.91 19.99 14.86 19.99 14.91 20.04 14.95 20.08 15 20.13 15.05 20.08 15.09 20.04 15.14 19.99 15.09 19.99 15.05 20 15 20M30 26.25C30 31.08 26.08 35 21.25 35 18.8 35 16.59 33.99 15 32.37 13.41 33.99 11.2 35 8.75 35 3.92 35 0 31.08 0 26.25 0 21.53 3.74 17.69 8.42 17.52 6.33 15.68 5 13 5 10 5 4.48 9.48 0 15 0 20.52 0 25 4.48 25 10 25 13 23.67 15.68 21.58 17.52 26.26 17.69 30 21.53 30 26.25" id="path28" fill="#D79E84"/></g><g id="g30" transform="translate(15.000000, 1.875000)"><path d="M7.5 0C3.41 0 0.8 5.13 0.69 5.35 0.59 5.54 0.6 5.77 0.72 5.95 0.83 6.14 1.03 6.25 1.25 6.25L13.75 6.25C13.97 6.25 14.17 6.14 14.28 5.95 14.4 5.77 14.41 5.54 14.31 5.35 14.2 5.13 11.59 0 7.5 0" id="path32" fill="#642116"/></g><g id="g34" transform="translate(20.000000, 11.875000)"><path d="M1.25 0C0.91 0 0.63 0.28 0.63 0.63L0.63 3.13C0.63 3.47 0.91 3.75 1.25 3.75 1.6 3.75 1.88 3.47 1.88 3.13L1.88 0.63C1.88 0.28 1.6 0 1.25 0" id="path36" fill="#642116"/></g><g id="g38" transform="translate(22.500000, 11.875000)"><path d="M1.25 0C0.91 0 0.63 0.28 0.63 0.63L0.63 3.13C0.63 3.47 0.91 3.75 1.25 3.75 1.6 3.75 1.88 3.47 1.88 3.13L1.88 0.63C1.88 0.28 1.6 0 1.25 0" id="path40" fill="#642116"/></g><g id="g42" transform="translate(13.750000, 20.000000)"><path d="M5 3.75C5 1.68 3.88 0 2.5 0 1.12 0 0 1.68 0 3.75 0 5.82 1.12 7.5 2.5 7.5 3.88 7.5 5 5.82 5 3.75" id="path44" fill="#292F33"/></g><g id="g46" transform="translate(26.250000, 20.000000)"><path d="M5 3.75C5 1.68 3.88 0 2.5 0 1.12 0 0 1.68 0 3.75 0 5.82 1.12 7.5 2.5 7.5 3.88 7.5 5 5.82 5 3.75" id="path48" fill="#292F33"/></g></g></g></g></g><g id="g50"><g id="g52-Clipped"><mask id="mask-8" fill="white"><use xlink:href="#path-7"/></mask><g id="path56"/><g id="g52" mask="url(#mask-8)"><g transform="translate(22.500000, 21.250000)" id="g58"><path d="M2.5 1.25C2.5 0.56 1.94 0 1.25 0 0.56 0 0 0.56 0 1.25 0 1.94 0.56 2.5 1.25 2.5 1.94 2.5 2.5 1.94 2.5 1.25" id="path60" fill="#D79E84"/></g></g></g></g></g></g></g><g id="1" transform="translate(293.000000, -2.000000)"><g id="svg2"><g id="g12" transform="translate(23.750000, 23.750000) scale(1, -1) translate(-23.750000, -23.750000) "><g id="g14"><g id="g16-Clipped"><mask id="mask-10" fill="white"><use xlink:href="#path-9"/></mask><g id="path20"/><g id="g16" mask="url(#mask-10)"><g transform="translate(0.000000, 2.500000)"><g id="g22" transform="translate(0.241750, 0.838625)"><path d="M43.75 26.25C44.23 26.71 44.67 27.24 45.03 27.85 47.13 31.42 45.36 40.72 44.29 41.35 43.42 41.86 37.37 40.04 33.98 37.44 30.85 39.31 27.3 40.41 23.51 40.41 19.73 40.41 16.19 39.31 13.07 37.45 9.67 40.05 3.66 41.86 2.79 41.35 1.71 40.72-0.06 31.42 2.05 27.85 2.4 27.26 2.82 26.75 3.29 26.29 1.84 23.1 1.01 19.61 1.01 16.06 1.01 3.58 11.02 0.41 23.51 0.41 35.99 0.41 46.01 3.58 46.01 16.06 46.01 19.6 45.18 23.07 43.75 26.25" id="path24" fill="#F4ABBA"/></g><g id="g26" transform="translate(2.997375, 27.544000)"><path d="M7.5 8.75C4.79 10.34 2 11.35 1.5 11.06 0.79 10.64 0.15 4.81 1.06 0.73 2.65 3.83 4.86 6.58 7.5 8.75" id="path28" fill="#EA596E"/></g><g id="g30" transform="translate(35.941125, 28.269625)"><path d="M7.5 0C8.41 4.08 7.77 9.91 7.06 10.33 6.56 10.63 3.77 9.61 1.06 8.02 3.7 5.85 5.91 3.1 7.5 0" id="path32" fill="#EA596E"/></g><g id="g34" transform="translate(11.250000, 2.343750)"><path d="M25 12.5C25 6.89 21.13 0.78 12.5 0.78 3.87 0.78 0 6.89 0 12.5 0 18.11 3.87 19.53 12.5 19.53 21.13 19.53 25 18.11 25 12.5" id="path36" fill="#EA596E"/></g><g id="g38" transform="translate(16.250000, 9.250500)"><path d="M3.75 3.75C3.75 1.43 3.33 0.75 1.88 0.75 0.43 0.75 0 1.43 0 3.75 0 6.07 0.43 6.75 1.88 6.75 3.33 6.75 3.75 6.07 3.75 3.75" id="path40" fill="#662113"/></g><g id="g42" transform="translate(27.500000, 9.250500)"><path d="M3.75 3.75C3.75 1.43 3.33 0.75 1.88 0.75 0.43 0.75 0 1.43 0 3.75 0 6.07 0.43 6.75 1.88 6.75 3.33 6.75 3.75 6.07 3.75 3.75" id="path44" fill="#662113"/></g><g id="g46" transform="translate(7.500000, 20.000000)"><path d="M5 2.5C5 1.12 3.88 0 2.5 0 1.12 0 0 1.12 0 2.5 0 3.88 1.12 5 2.5 5 3.88 5 5 3.88 5 2.5" id="path48" fill="#292F33"/></g><g id="g50" transform="translate(35.000000, 20.000000)"><path d="M5 2.5C5 1.12 3.88 0 2.5 0 1.12 0 0 1.12 0 2.5 0 3.88 1.12 5 2.5 5 3.88 5 5 3.88 5 2.5" id="path52" fill="#292F33"/></g></g></g></g></g></g></g></g><g id="1" transform="translate(50.000000, 143.000000)"><g id="svg2"><g id="g12" transform="translate(23.750000, 23.750000) scale(1, -1) translate(-23.750000, -23.750000) "><g id="g14"><g id="g16-Clipped"><mask id="mask-12" fill="white"><use xlink:href="#path-11"/></mask><g id="path20"/><g id="g16" mask="url(#mask-12)"><g transform="translate(0.000000, 7.500000)"><g id="g22" transform="translate(1.247500, 0.044000)"><path d="M45 12.5C45 12.51 45 12.52 45 12.53 45 12.75 44.97 12.95 44.93 13.14 44.34 16.94 39.92 30.09 38.75 32.42 37.5 34.92 34.64 34.57 33.75 33.69 32.5 32.44 32.5 29.95 33.75 29.95 35 29.95 37.5 30 38.75 26.21 39.74 23.21 40.86 18.73 41.59 15.71 39.59 16.69 36.39 17.18 33.05 17.18 29.39 17.18 26.49 16.82 24.96 15.99 24.34 16.13 23.54 16.21 22.5 16.21 21.47 16.21 20.67 16.13 20.05 15.99 18.52 16.82 15.62 17.18 11.96 17.18 8.61 17.18 5.42 16.69 3.42 15.71 4.14 18.73 5.27 23.21 6.25 26.21 7.5 30 10 29.95 11.25 29.95 12.5 29.95 12.5 32.44 11.25 33.69 10.37 34.57 7.5 34.92 6.25 32.42 5.09 30.09 0.67 16.94 0.07 13.14 0.03 12.95 0 12.75 0 12.53 0 12.52 0.01 12.51 0.01 12.5 0 12.49 0 12.47 0 12.46L0.01 12.46C0.04 11.39 0.62 10.54 1.33 10.54 1.39 10.54 1.44 10.56 1.5 10.57 1.89 7.16 2.94 3.62 3.99 2.57 6.64-0.08 14.61-0.08 17.27 2.57 18.9 4.2 20.39 9.2 20.98 12.29 21.46 12.38 21.97 12.46 22.5 12.46 23.04 12.46 23.55 12.38 24.02 12.29 24.61 9.2 26.11 4.2 27.74 2.57 30.39-0.08 38.36-0.08 41.02 2.57 42.07 3.62 43.12 7.16 43.51 10.57 43.56 10.56 43.62 10.54 43.67 10.54 44.39 10.54 44.97 11.39 45 12.46L45 12.46C45 12.47 45 12.49 45 12.5" id="path24" fill="#292F33"/></g><g id="g26" transform="translate(4.843750, 2.367000)"><path d="M15 8.75C15 7.29 13.62 3.47 12.08 1.93 10.13-0.02 4.29-0.02 2.34 1.93 1.37 2.91 0.39 5.3 0.39 8.22 0.39 10.17 4.33 10.88 8.36 10.88 12.34 10.88 15 10.21 15 8.75" id="path28" fill="#55ACEE"/></g><g id="g30" transform="translate(27.656250, 2.367000)"><path d="M0 8.75C0 7.29 1.38 3.47 2.92 1.93 4.87-0.02 10.71-0.02 12.66 1.93 13.64 2.91 14.61 5.3 14.61 8.22 14.61 10.17 10.68 10.88 6.64 10.88 2.66 10.88 0 10.21 0 8.75" id="path32" fill="#55ACEE"/></g></g></g></g></g></g></g></g><g id="1" transform="translate(-1.000000, 47.000000)"><g id="svg2"><g id="g12" transform="translate(23.750000, 23.750000) scale(1, -1) translate(-23.750000, -23.750000) "><g id="g14"><g id="g16-Clipped"><mask id="mask-14" fill="white"><use xlink:href="#path-13"/></mask><g id="path20"/><g id="g16" mask="url(#mask-14)"><g transform="translate(2.500000, 1.250000)"><g id="g22" transform="translate(15.000000, 10.339375)"><path d="M20 8.75L20 11.2C21.25 12.49 23.64 14.82 24.24 17.8 24.42 17.7 24.31 17.63 24.51 17.63 25.45 17.63 26.07 18.86 26.07 20.38 26.07 21.87 25.25 23.08 24.33 23.12 24.51 23.76 24.59 24.63 24.59 25.73 24.59 29.43 21.41 33.86 14.28 33.86 7.94 33.86 3.97 29.43 3.97 25.73 3.97 24.66 4.03 23.78 4.15 23.1 3.28 22.97 2.59 21.81 2.59 20.38 2.59 18.86 3.36 17.63 4.31 17.63 4.5 17.63 4.22 17.7 4.39 17.8 4.99 14.82 7.5 12.49 8.75 11.2L8.75 8.9C3.75 8.28 0 5.61 0 2.94L0 2.13 0 1.93C0 0.91 1.03 0.91 2.04 0.91L12.74 0.91 14.77 0.91 25.46 0.91C26.47 0.91 27.5 0.91 27.5 1.93L27.5 2.13 27.5 2.94C27.5 5.44 23.75 7.94 20 8.75" id="path24" fill="#66757F"/></g><g id="g26" transform="translate(0.000000, 0.339375)"><path d="M20 8.75L20 11.2C21.25 12.49 23.64 14.82 24.24 17.8 24.42 17.7 24.31 17.63 24.51 17.63 25.45 17.63 26.07 18.86 26.07 20.38 26.07 21.87 25.25 23.08 24.33 23.12 24.51 23.76 24.59 24.63 24.59 25.73 24.59 29.43 21.41 33.86 14.28 33.86 7.94 33.86 3.97 29.43 3.97 25.73 3.97 24.66 4.03 23.78 4.15 23.1 3.28 22.97 2.59 21.81 2.59 20.38 2.59 18.86 3.36 17.63 4.31 17.63 4.5 17.63 4.22 17.7 4.39 17.8 4.99 14.82 7.5 12.49 8.75 11.2L8.75 8.9C3.75 8.28 0 5.61 0 2.94L0 2.13 0 1.93C0 0.91 1.03 0.91 2.04 0.91L12.74 0.91 14.77 0.91 25.46 0.91C26.47 0.91 27.5 0.91 27.5 1.93L27.5 2.13 27.5 2.94C27.5 5.44 23.75 7.94 20 8.75" id="path28" fill="#292F33"/></g></g></g></g></g></g></g></g><g id="1" transform="translate(102.000000, -2.000000)"><g id="svg2"><g id="g12" transform="translate(23.750000, 23.750000) scale(1, -1) translate(-23.750000, -23.750000) "><g id="g14"><g id="g16-Clipped"><mask id="mask-16" fill="white"><use xlink:href="#path-15"/></mask><g id="path20"/><g id="g16" mask="url(#mask-16)"><g transform="translate(0.000000, 2.500000)"><g id="g22" transform="translate(1.106000, 0.208125)"><path d="M45 28.75C45 35.56 39.48 41.09 32.67 41.09 28.53 41.09 24.88 39.04 22.64 35.92 20.41 39.04 16.76 41.09 12.62 41.09 5.81 41.09 0.29 35.56 0.29 28.75 0.29 27.79 0.41 26.85 0.62 25.95 2.33 15.31 14.16 4.08 22.64 1 31.12 4.08 42.96 15.31 44.67 25.95 44.88 26.85 45 27.79 45 28.75" id="path24" fill="#F2ABBA"/></g><g id="g26" transform="translate(6.778625, 5.784875)"><path d="M33.75 21.25C33.75 26.36 29.61 30.51 24.49 30.51 21.39 30.51 18.65 28.98 16.97 26.63 15.29 28.98 12.55 30.51 9.45 30.51 4.34 30.51 0.19 26.36 0.19 21.25 0.19 20.53 0.28 19.82 0.44 19.15 1.73 11.16 10.61 2.74 16.97 0.42 23.34 2.74 32.22 11.16 33.5 19.15 33.66 19.82 33.75 20.53 33.75 21.25" id="path28" fill="#E75A70"/></g><g id="g30" transform="translate(11.489250, 10.211750)"><path d="M23.75 15C23.75 18.5 20.91 21.34 17.41 21.34 15.29 21.34 13.41 20.29 12.26 18.69 11.11 20.29 9.24 21.34 7.11 21.34 3.61 21.34 0.77 18.5 0.77 15 0.77 14.5 0.83 14.02 0.94 13.56 1.82 8.09 7.9 2.32 12.26 0.74 16.62 2.32 22.7 8.09 23.58 13.56 23.69 14.02 23.75 14.5 23.75 15" id="path32" fill="#BB1A34"/></g></g></g></g></g></g></g></g><g id="1" transform="translate(341.000000, 191.000000)"><g id="svg2"><g id="g10" transform="translate(23.750000, 23.750000) scale(1, -1) translate(-23.750000, -23.750000) "><g id="g12"><g id="g14-Clipped"><mask id="mask-18" fill="white"><use xlink:href="#path-17"/></mask><g id="path18"/><g id="g14" mask="url(#mask-18)"><g transform="translate(12.500000, 1.250000)"><g id="g20"><path d="M22.5 5C22.5 2.24 20.26 0 17.5 0L5 0C2.24 0 0 2.24 0 5L0 40C0 42.76 2.24 45 5 45L17.5 45C20.26 45 22.5 42.76 22.5 40L22.5 5 22.5 5Z" id="path22" fill="#292F33"/></g><g id="g24" transform="translate(6.248125, 3.750000)"><path d="M5 10C7.76 10 10 7.76 10 5 10 2.24 7.76 0 5 0 2.24 0 0 2.24 0 5 0 7.76 2.24 10 5 10" id="path26" fill="#77B255"/></g><g id="g28" transform="translate(6.248125, 17.500000)"><path d="M5 10C7.76 10 10 7.76 10 5 10 2.24 7.76 0 5 0 2.24 0 0 2.24 0 5 0 7.76 2.24 10 5 10" id="path30" fill="#FFCC4D"/></g><g id="g32" transform="translate(6.248125, 31.250000)"><path d="M5 10C7.76 10 10 7.76 10 5 10 2.24 7.76 0 5 0 2.24 0 0 2.24 0 5 0 7.76 2.24 10 5 10" id="path34" fill="#DD2E44"/></g></g></g></g></g></g></g></g><g id="1" transform="translate(152.000000, -2.000000)"><g id="svg2"><g id="g10" transform="translate(24.000000, 24.500000) scale(1, -1) translate(-24.000000, -24.500000) translate(0.000000, 0.500000)"><g id="g12"><g id="g14-Clipped"><mask id="mask-20" fill="white"><use xlink:href="#path-19"/></mask><g id="path18"/><g id="g14" mask="url(#mask-20)"><g transform="translate(0.000000, -1.250000)" id="g20"><g transform="translate(0.130625, 1.146250)"><path d="M36.25 21.25C35.47 21.25 34.72 21.15 33.99 20.98L21.01 33.96C21.18 34.69 21.28 35.45 21.28 36.22 21.28 41.76 16.79 46.25 11.25 46.25 10.12 46.25 8.62 45.1 9.87 43.85L13.62 40.1C13.62 40.1 14.87 37.6 12.37 35.1 9.87 32.6 7.37 33.85 7.37 33.85L3.62 37.6C2.37 38.85 1.22 37.36 1.22 36.22 1.22 30.69 5.71 26.2 11.25 26.2 12.03 26.2 12.78 26.3 13.51 26.46L26.49 13.48C26.32 12.76 26.22 12 26.22 11.22 26.22 5.69 30.71 1.2 36.25 1.2 37.38 1.2 38.88 2.34 37.63 3.59L33.88 7.34C33.88 7.34 32.63 9.84 35.13 12.34 37.63 14.84 40.13 13.59 40.13 13.59L43.88 9.84C45.13 8.59 46.28 10.09 46.28 11.22 46.28 16.76 41.79 21.25 36.25 21.25" id="path22" fill="#8899A6"/></g></g></g></g></g></g></g></g><g id="26" transform="translate(50.000000, 47.000000)"><g id="svg2"><g id="g10" transform="translate(23.750000, 23.750000) scale(1, -1) translate(-23.750000, -23.750000) "><g id="g12"><g id="g14-Clipped"><mask id="mask-22" fill="white"><use xlink:href="#path-21"/></mask><g id="path18"/><g id="g14" mask="url(#mask-22)"><g transform="translate(5.000000, 1.250000)" id="g20"><path d="M8.75 0C8.48 0 8.2 0.09 7.98 0.27 7.51 0.64 7.37 1.29 7.64 1.82L16.35 18.75 1.25 18.75C0.73 18.75 0.26 19.08 0.08 19.56 -0.1 20.05 0.04 20.6 0.43 20.95L27.93 44.7C28.17 44.9 28.46 45 28.75 45 29.02 45 29.3 44.91 29.52 44.73 29.99 44.36 30.14 43.71 29.86 43.18L21.16 26.25 36.25 26.25C36.77 26.25 37.24 25.93 37.42 25.44 37.6 24.95 37.46 24.4 37.07 24.05L9.57 0.3C9.33 0.1 9.04 0 8.75 0" id="path22" fill="#F4900C"/></g></g></g></g></g></g></g><g id="274" transform="translate(152.000000, 143.000000)"><g id="svg2"><g id="g10" transform="translate(23.750000, 23.750000) scale(1, -1) translate(-23.750000, -23.750000) "><g id="g12"><g id="g14-Clipped"><mask id="mask-24" fill="white"><use xlink:href="#path-23"/></mask><g id="path18"/><g id="g14" mask="url(#mask-24)"><g transform="translate(1.250000, 1.250000)" id="g20"><g transform="translate(0.666500, 1.247000)"><path d="M26.25 21.25L41.54 36.54C42.76 37.76 42.76 39.74 41.54 40.96 40.32 42.18 38.35 42.18 37.12 40.96L21.83 25.67 6.54 40.96C5.32 42.18 3.34 42.18 2.12 40.96 0.9 39.74 0.9 37.76 2.12 36.54L17.41 21.25 2.09 5.92C0.86 4.7 0.86 2.72 2.09 1.5 2.7 0.89 3.5 0.59 4.3 0.59 5.09 0.59 5.89 0.89 6.5 1.5L21.83 16.83 37.12 1.54C37.74 0.93 38.53 0.62 39.33 0.62 40.13 0.62 40.93 0.93 41.54 1.54 42.76 2.76 42.76 4.74 41.54 5.96L26.25 21.25 26.25 21.25Z" id="path22" fill="#DD2E44"/></g></g></g></g></g></g></g></g><g id="1" transform="translate(195.000000, 47.000000)"><g id="svg2"><g id="g10" transform="translate(23.750000, 23.750000) scale(1, -1) translate(-23.750000, -23.750000) "><g id="g12"><g id="g14-Clipped"><mask id="mask-26" fill="white"><use xlink:href="#path-25"/></mask><g id="path18"/><g id="g14" mask="url(#mask-26)"><g transform="translate(10.000000, 1.250000)"><g id="g20" transform="translate(0.000000, 9.924875)"><path d="M27.5 21.25C27.5 13.2 21.25 11.95 21.25 4.45 21.25 0.58 17.35 0.25 14.38 0.25 11.81 0.25 6.14 1.23 6.14 4.45 6.14 11.95 0 13.2 0 21.25 0 28.79 6.61 34.9 13.85 34.9 21.1 34.9 27.5 28.79 27.5 21.25" id="path22" fill="#FFD983"/></g><g id="g24" transform="translate(7.708750, 0.625000)"><path d="M11.25 3.75C11.25 2.72 8.46 0.63 6.04 0.63 3.63 0.63 0.83 2.72 0.83 3.75 0.83 4.79 3.63 4.38 6.04 4.38 8.46 4.38 11.25 4.79 11.25 3.75" id="path26" fill="#CCD6DD"/></g><g id="g28" transform="translate(7.133750, 10.883750)"><path d="M12.5 21.25C12.01 21.74 11.22 21.74 10.73 21.25L6.62 17.13 2.5 21.25C2.01 21.74 1.22 21.74 0.73 21.25 0.24 20.76 0.24 19.97 0.73 19.48L5.37 14.85 5.37 1.62C5.37 0.93 5.93 0.37 6.62 0.37 7.31 0.37 7.87 0.93 7.87 1.62L7.87 14.85 12.5 19.48C12.99 19.97 12.99 20.76 12.5 21.25" id="path30" fill="#FFCC4D"/></g><g id="g32" transform="translate(6.250000, 3.750000)"><path d="M15 2.5C15 1.12 13.88 0 12.5 0L2.5 0C1.12 0 0 1.12 0 2.5L0 10 15 10 15 2.5 15 2.5Z" id="path34" fill="#99AAB5"/></g><g id="g36" transform="translate(4.998750, 5.000000)"><path d="M1.25 0C0.65 0 0.12 0.43 0.02 1.05 -0.09 1.73 0.37 2.37 1.05 2.48L16.05 4.98C16.73 5.11 17.37 4.64 17.48 3.96 17.6 3.28 17.14 2.63 16.46 2.52L1.46 0.02C1.39 0.01 1.32 0 1.25 0" id="path38" fill="#CCD6DD"/></g><g id="g40" transform="translate(4.998750, 10.000000)"><path d="M1.25 0C0.65 0 0.12 0.43 0.02 1.05 -0.09 1.73 0.37 2.37 1.05 2.48L16.05 4.98C16.73 5.1 17.37 4.64 17.48 3.96 17.6 3.28 17.14 2.63 16.46 2.52L1.46 0.02C1.39 0.01 1.32 0 1.25 0" id="path42" fill="#CCD6DD"/></g></g></g></g></g></g></g></g><g id="1" transform="translate(293.000000, 143.000000)"><g id="svg2"><g id="g10" transform="translate(23.750000, 23.750000) scale(1, -1) translate(-23.750000, -23.750000) "><g id="g12" transform="translate(30.429750, 31.482500)" fill="#CCD6DD"><path d="M3.75 0L1.06 2.7 8.13 9.77 10.82 7.07 3.75 0 3.75 0Z" id="path14"/></g><g id="g16"><g id="g18-Clipped"><mask id="mask-28" fill="white"><use xlink:href="#path-27"/></mask><g id="path22"/><g id="g18" mask="url(#mask-28)"><g transform="translate(1.250000, 1.250000)"><g id="g24"><path d="M35 17.5C35 7.84 27.16 0 17.5 0 7.84 0 0 7.84 0 17.5 0 27.17 7.84 35 17.5 35 27.16 35 35 27.17 35 17.5" id="path26" fill="#292F33"/></g><g id="g28" transform="translate(23.320375, 23.750000)"><path d="M7.5 0L0.43 7.07 7.5 14.14 14.57 7.07 7.5 0 7.5 0Z" id="path30" fill="#292F33"/></g><g id="g32" transform="translate(35.000000, 35.000000)"><path d="M10 5C10 2.24 7.76 0 5 0 2.24 0 0 2.24 0 5 0 7.76 2.24 10 5 10 7.76 10 10 7.76 10 5" id="path34" fill="#F18F26"/></g><g id="g36" transform="translate(37.500000, 37.500000)"><path d="M5 2.5C5 1.12 3.88 0 2.5 0 1.12 0 0 1.12 0 2.5 0 3.88 1.12 5 2.5 5 3.88 5 5 3.88 5 2.5" id="path38" fill="#FDCB58"/></g></g></g></g></g></g></g></g><g id="1" transform="translate(242.000000, 95.000000)"><g id="svg2"><g id="g10" transform="translate(23.750000, 23.750000) scale(1, -1) translate(-23.750000, -23.750000) "><g id="g12" transform="translate(17.064250, 17.128875)" fill="#BE1931"><path d="M13.75 0L0.06 13.69 11.8 23.46 23.53 11.73 13.75 0 13.75 0Z" id="path14"/></g><g id="g16"><g id="g18-Clipped"><mask id="mask-30" fill="white"><use xlink:href="#path-29"/></mask><g id="path22"/><g id="g18" mask="url(#mask-30)"><g transform="translate(1.250000, 1.250000)"><g id="g24" transform="translate(25.749500, 25.109875)"><path d="M17.5 2.5C15.34 0.34 11.84 0.34 9.68 2.5L1.86 10.32C-0.3 12.48-0.3 15.98 1.86 18.14 4.02 20.3 7.52 20.3 9.68 18.14L17.5 10.32C19.66 8.16 19.66 4.66 17.5 2.5" id="path26" fill="#DD2E44"/></g><g id="g28" transform="translate(0.061000, 0.058625)"><path d="M18.75 18.75C18.75 18.75 25.96 32.44 16.19 22.66 6.41 12.89-0.8 1.16 0.18 0.18 1.15-0.8 12.89 6.42 22.66 16.19 32.44 25.97 18.75 18.75 18.75 18.75" id="path30" fill="#99AAB5"/></g><g id="g32" transform="translate(7.768500, 7.511000)"><path d="M23.75 2.5C21.59 0.34 18.09 0.34 15.93 2.5L2.24 16.19C0.08 18.35 0.08 21.85 2.24 24.01 4.4 26.17 7.91 26.17 10.07 24.01L23.75 10.32C25.91 8.16 25.91 4.66 23.75 2.5" id="path34" fill="#DD2E44"/></g></g></g></g></g></g></g></g><g id="1" transform="translate(-1.000000, 95.000000)"><g id="svg2"><g id="g10" transform="translate(23.750000, 23.750000) scale(1, -1) translate(-23.750000, -23.750000) "><g id="g12"><g id="g14-Clipped"><mask id="mask-32" fill="white"><use xlink:href="#path-31"/></mask><g id="path18"/><g id="g14" mask="url(#mask-32)"><g transform="translate(1.250000, 2.500000)"><g id="g20"><path d="M22.5 42.5C10.07 42.5 0 34.67 0 25 0 19.54 3.22 14.67 8.26 11.46 7.6 8.57 6.07 4.29 2.5 0 9.7 1.2 14.3 4.7 17.15 8.02 18.86 7.69 20.65 7.5 22.5 7.5 34.93 7.5 45 15.34 45 25 45 34.67 34.93 42.5 22.5 42.5" id="path22" fill="#BDDDF4"/></g><g id="g24" transform="translate(20.000000, 22.500000)"><path d="M5 2.5C5 1.12 3.88 0 2.5 0 1.12 0 0 1.12 0 2.5 0 3.88 1.12 5 2.5 5 3.88 5 5 3.88 5 2.5" id="path26" fill="#2A6797"/></g><g id="g28" transform="translate(30.000000, 22.500000)"><path d="M5 2.5C5 1.12 3.88 0 2.5 0 1.12 0 0 1.12 0 2.5 0 3.88 1.12 5 2.5 5 3.88 5 5 3.88 5 2.5" id="path30" fill="#2A6797"/></g><g id="g32" transform="translate(10.000000, 22.500000)"><path d="M5 2.5C5 1.12 3.88 0 2.5 0 1.12 0 0 1.12 0 2.5 0 3.88 1.12 5 2.5 5 3.88 5 5 3.88 5 2.5" id="path34" fill="#2A6797"/></g></g></g></g></g></g></g></g><g id="1" transform="translate(293.000000, 47.000000)"><g id="svg2"><g id="g10" transform="translate(23.750000, 23.750000) scale(1, -1) translate(-23.750000, -23.750000) "><g id="g12"><g id="g14-Clipped"><mask id="mask-34" fill="white"><use xlink:href="#path-33"/></mask><g id="path18"/><g id="g14" mask="url(#mask-34)"><g transform="translate(2.500000, 1.250000)"><g id="g20"><path d="M37.5 5C37.5 2.24 35.26 0 32.5 0L5 0C2.24 0 0 2.24 0 5L0 40C0 42.76 2.24 45 5 45L32.5 45C35.26 45 37.5 42.76 37.5 40L37.5 5 37.5 5Z" id="path22" fill="#CCD6DD"/></g><g id="g24" transform="translate(5.000000, 13.750000)"><path d="M27.5 1.25C27.5 0.56 26.94 0 26.25 0L1.25 0C0.56 0 0 0.56 0 1.25 0 1.94 0.56 2.5 1.25 2.5L26.25 2.5C26.94 2.5 27.5 1.94 27.5 1.25" id="path26" fill="#99AAB5"/></g><g id="g28" transform="translate(5.000000, 8.750000)"><path d="M7.5 1.25C7.5 0.56 6.94 0 6.25 0L1.25 0C0.56 0 0 0.56 0 1.25 0 1.94 0.56 2.5 1.25 2.5L6.25 2.5C6.94 2.5 7.5 1.94 7.5 1.25" id="path30" fill="#99AAB5"/></g><g id="g32" transform="translate(5.000000, 33.750000)"><path d="M27.5 1.25C27.5 0.56 26.94 0 26.25 0L1.25 0C0.56 0 0 0.56 0 1.25 0 1.94 0.56 2.5 1.25 2.5L26.25 2.5C26.94 2.5 27.5 1.94 27.5 1.25" id="path34" fill="#99AAB5"/></g><g id="g36" transform="translate(5.000000, 28.750000)"><path d="M27.5 1.25C27.5 0.56 26.94 0 26.25 0L1.25 0C0.56 0 0 0.56 0 1.25 0 1.94 0.56 2.5 1.25 2.5L26.25 2.5C26.94 2.5 27.5 1.94 27.5 1.25" id="path38" fill="#99AAB5"/></g><g id="g40" transform="translate(5.000000, 23.750000)"><path d="M27.5 1.25C27.5 0.56 26.94 0 26.25 0L1.25 0C0.56 0 0 0.56 0 1.25 0 1.94 0.56 2.5 1.25 2.5L26.25 2.5C26.94 2.5 27.5 1.94 27.5 1.25" id="path42" fill="#99AAB5"/></g><g id="g44" transform="translate(5.000000, 18.750000)"><path d="M27.5 1.25C27.5 0.56 26.94 0 26.25 0L1.25 0C0.56 0 0 0.56 0 1.25 0 1.94 0.56 2.5 1.25 2.5L26.25 2.5C26.94 2.5 27.5 1.94 27.5 1.25" id="path46" fill="#99AAB5"/></g><g id="g48" transform="translate(8.750000, 8.410000)"><path d="M28.75 28.75C27.72 29.42 26.45 29.47 25.6 28.78L24.61 27.97 22.75 26.46 22.63 26.36 19.66 23.94 4.81 11.83C4.26 11.38 3.82 10.31 3.35 9.24 2.87 8.17 2.13 5.67 1.54 3.75 1.36 3.44 0.21 1.44 0.85 0.68 1.5-0.09 3.76 0.67 4.06 0.78 6.1 0.99 8.73 1.24 9.87 1.5 11.03 1.77 12.19 1.99 12.74 2.44 12.75 2.45 12.75 2.46 12.76 2.47L27.58 14.55 28.57 15.36 28.75 15.51 28.75 28.75 28.75 28.75Z" id="path50" fill="#66757F"/></g><g id="g52" transform="translate(8.930625, 10.592000)"><path d="M12.5 6.25C12.5 6.25 10.91 8.6 9.85 9.44 9.01 10.5 6.67 12.09 6.67 12.09 6.11 12.64 5.18 12.69 4.63 12.14 4.09 11.59 3.64 10.43 3.16 9.28 2.58 7.84 1.57 4.08 0.95 2.09 0.85 1.75 1.6 2.65 1.58 2.35 1.57 2.12 1.62 1.86 1.68 1.62 1.57 1.51 1.49 1.43 1.49 1.43 1.56 1.4 1.65 1.37 1.76 1.34 1.79 1.24 1.82 1.15 1.84 1.08 1.84 1.08 1.92 1.15 2.04 1.26 2.27 1.2 2.53 1.16 2.77 1.17 3.07 1.18 2.16 0.43 2.5 0.54 4.5 1.16 8.26 2.16 9.69 2.75 10.85 3.22 12.01 3.67 12.56 4.22 13.1 4.76 13.06 5.69 12.5 6.25" id="path54" fill="#D99E82"/></g><g id="g56" transform="translate(29.140625, 30.811125)"><path d="M1.25 8.75C0.16 7.66 0.16 5.88 1.25 4.79L5.21 0.83C6.3-0.26 8.08-0.26 9.17 0.83L13.13 4.79C14.22 5.88 14.22 7.66 13.13 8.75L9.17 12.71C8.08 13.8 6.3 13.8 5.21 12.71L1.25 8.75 1.25 8.75Z" id="path58" fill="#EA596E"/></g><g id="g60" transform="translate(13.561375, 13.981875)"><path d="M0 8.75C0 8.75 0.99 7.76 3.96 4.79 6.93 1.82 7.92 0.83 7.92 0.83L22.77 15.68 14.85 23.6 0 8.75 0 8.75Z" id="path62" fill="#FFCC4D"/></g><g id="g64" transform="translate(9.122375, 10.322250)"><path d="M3.75 1.25C3.75 1.25 1.18-0.17 0.48 0.53 -0.22 1.23 1.21 3.79 1.21 3.79 1.21 3.79 3.65 3.75 3.75 1.25" id="path66" fill="#292F33"/></g><g id="g68" transform="translate(28.359375, 28.781125)"><path d="M5 13.75L12.92 5.83 7.97 0.88 0.05 8.8 5 13.75 5 13.75Z" id="path70" fill="#CCD6DD"/></g><g id="g72" transform="translate(31.379375, 31.801125)"><path d="M0 8.75L7.92 0.83 8.91 1.82 0.99 9.74 0 8.75 0 8.75Z" id="path74" fill="#99AAB5"/></g><g id="g76" transform="translate(29.400625, 29.821125)"><path d="M0 8.75L7.92 0.83 8.91 1.82 0.99 9.74 0 8.75 0 8.75Z" id="path78" fill="#99AAB5"/></g></g></g></g></g></g></g></g><g id="1" transform="translate(152.000000, 47.000000)"><g id="svg2"><g id="g10" transform="translate(23.750000, 23.750000) scale(1, -1) translate(-23.750000, -23.750000) "><g id="g12"><g id="g14-Clipped"><mask id="mask-36" fill="white"><use xlink:href="#path-35"/></mask><g id="path18"/><g id="g14" mask="url(#mask-36)"><g transform="translate(1.250000, 1.250000)"><g id="g20"><path d="M42.5 5L38.75 5 38.75 40C38.75 42.76 36.51 45 33.75 45L11.25 45C8.49 45 6.25 42.76 6.25 40L6.25 5 2.5 5C1.12 5 0 3.88 0 2.5 0 1.12 1.12 0 2.5 0L42.5 0C43.88 0 45 1.12 45 2.5 45 3.88 43.88 5 42.5 5" id="path22" fill="#BCBEC0"/></g><g id="g24" transform="translate(8.750000, 0.000000)"><path d="M27.5 3.75C27.5 1.68 25.82 0 23.75 0L3.75 0C1.68 0 0 1.68 0 3.75L0 38.75C0 40.82 1.68 42.5 3.75 42.5L23.75 42.5C25.82 42.5 27.5 40.82 27.5 38.75L27.5 3.75 27.5 3.75Z" id="path26" fill="#BE1931"/></g><g id="g28" transform="translate(11.250000, 16.875000)"><path d="M6.25 3.75C6.25 2.03 4.85 0.63 3.13 0.63 1.4 0.63 0 2.03 0 3.75 0 5.48 1.4 6.88 3.13 6.88 4.85 6.88 6.25 5.48 6.25 3.75" id="path30" fill="#F4900C"/></g><g id="g32" transform="translate(12.500000, 18.125000)"><path d="M3.75 2.5C3.75 1.47 2.91 0.63 1.88 0.63 0.84 0.63 0 1.47 0 2.5 0 3.54 0.84 4.38 1.88 4.38 2.91 4.38 3.75 3.54 3.75 2.5" id="path34" fill="#FFD983"/></g><g id="g36" transform="translate(26.250000, 25.000000)"><path d="M6.25 0L1.25 0C0.56 0 0 0.56 0 1.25 0 1.94 0.56 2.5 1.25 2.5L5 2.5 5 11.25C5 11.94 5.56 12.5 6.25 12.5 6.94 12.5 7.5 11.94 7.5 11.25L7.5 1.25C7.5 0.56 6.94 0 6.25 0" id="path38" fill="#EA596E"/></g><g id="g40" transform="translate(23.750000, 27.500000)"><path d="M1.25 0C0.56 0 0 0.56 0 1.25L0 11.25C0 11.94 0.56 12.5 1.25 12.5L6.25 12.5C6.94 12.5 7.5 11.94 7.5 11.25 7.5 10.56 6.94 10 6.25 10L2.5 10 2.5 1.25C2.5 0.56 1.94 0 1.25 0" id="path42" fill="#A0041E"/></g><g id="g44" transform="translate(13.750000, 25.000000)"><path d="M6.25 0L1.25 0C0.56 0 0 0.56 0 1.25 0 1.94 0.56 2.5 1.25 2.5L5 2.5 5 11.25C5 11.94 5.56 12.5 6.25 12.5 6.94 12.5 7.5 11.94 7.5 11.25L7.5 1.25C7.5 0.56 6.94 0 6.25 0" id="path46" fill="#EA596E"/></g><g id="g48" transform="translate(11.250000, 27.500000)"><path d="M1.25 0C0.56 0 0 0.56 0 1.25L0 11.25C0 11.94 0.56 12.5 1.25 12.5L6.25 12.5C6.94 12.5 7.5 11.94 7.5 11.25 7.5 10.56 6.94 10 6.25 10L2.5 10 2.5 1.25C2.5 0.56 1.94 0 1.25 0" id="path50" fill="#A0041E"/></g><g id="g52" transform="translate(26.250000, 2.500000)"><path d="M6.25 0L1.25 0C0.56 0 0 0.56 0 1.25 0 1.94 0.56 2.5 1.25 2.5L5 2.5 5 10C5 10.69 5.56 11.25 6.25 11.25 6.94 11.25 7.5 10.69 7.5 10L7.5 1.25C7.5 0.56 6.94 0 6.25 0" id="path54" fill="#EA596E"/></g><g id="g56" transform="translate(23.750000, 5.000000)"><path d="M1.25 0C0.56 0 0 0.56 0 1.25L0 10C0 10.69 0.56 11.25 1.25 11.25L6.25 11.25C6.94 11.25 7.5 10.69 7.5 10 7.5 9.31 6.94 8.75 6.25 8.75L2.5 8.75 2.5 1.25C2.5 0.56 1.94 0 1.25 0" id="path58" fill="#A0041E"/></g><g id="g60" transform="translate(13.750000, 2.500000)"><path d="M6.25 0L1.25 0C0.56 0 0 0.56 0 1.25 0 1.94 0.56 2.5 1.25 2.5L5 2.5 5 10C5 10.69 5.56 11.25 6.25 11.25 6.94 11.25 7.5 10.69 7.5 10L7.5 1.25C7.5 0.56 6.94 0 6.25 0" id="path62" fill="#EA596E"/></g><g id="g64" transform="translate(11.250000, 5.000000)"><path d="M1.25 0C0.56 0 0 0.56 0 1.25L0 10C0 10.69 0.56 11.25 1.25 11.25L6.25 11.25C6.94 11.25 7.5 10.69 7.5 10 7.5 9.31 6.94 8.75 6.25 8.75L2.5 8.75 2.5 1.25C2.5 0.56 1.94 0 1.25 0" id="path66" fill="#A0041E"/></g></g></g></g></g></g></g></g><g id="1" transform="translate(293.000000, 95.000000)"><g id="svg2"><g id="g10" transform="translate(23.750000, 23.750000) scale(1, -1) translate(-23.750000, -23.750000) "><g id="g12"><g id="g14-Clipped"><mask id="mask-38" fill="white"><use xlink:href="#path-37"/></mask><g id="path18"/><g id="g14" mask="url(#mask-38)"><g transform="translate(1.250000, 1.250000)"><g id="g20"><path d="M0 40C0 45 5 45 5 45L40 45C40 45 45 45 45 40L45 5C45 5 45 0 40 0L5 0C5 0 0 0 0 5L0 40 0 40Z" id="path22" fill="#99AAB5"/></g><g id="g24" transform="translate(25.000000, 30.625000)"><path d="M7.5 5C7.5 2.58 5.82 0.63 3.75 0.63 1.68 0.63 0 2.58 0 5 0 7.42 1.68 9.38 3.75 9.38 5.82 9.38 7.5 7.42 7.5 5" id="path26" fill="#FFFFFF"/></g><g id="g28" transform="translate(13.750000, 5.000000)"><path d="M22.5 23.75C22.5 23.75 22.5 26.25 20 26.25L11.25 26.25C10 26.25 8.75 25 8.75 25L6.25 22.5 1.25 22.5C1.25 22.5 0 22.5 0 21.25 0 20 1.25 20 1.25 20L5 20 7.5 20 10 22.5 10 1.25C10 1.25 10 0 11.25 0L12.5 0C12.5 0 13.75 0 13.75 1.25L13.75 11.25C13.75 11.25 13.75 12.5 15 12.5 16.25 12.5 16.25 11.25 16.25 11.25L16.25 1.25C16.25 1.25 16.25 0 17.5 0L18.75 0C18.75 0 20 0 20 1.25L20 12.5C20 12.5 22.5 12.5 22.5 15L22.5 23.75 22.5 23.75Z" id="path30" fill="#FFFFFF"/></g><g id="g32" transform="translate(6.250000, 5.000000)"><path d="M1.25 12.5C1.25 12.5 0 12.5 0 13.75 0 15 1.25 15 1.25 15 1.25 15 3.75 15 3.75 12.5L3.75 2.5 11.25 2.5 11.25 12.5C11.25 15 13.75 15 13.75 15 13.75 15 15 15 15 13.75 15 12.5 13.75 12.5 13.75 12.5L13.75 2.5C13.75 2.5 13.75 0 11.25 0L3.75 0C3.75 0 1.25 0 1.25 2.5L1.25 12.5 1.25 12.5Z" id="path34" fill="#FFFFFF"/></g><g id="g36" transform="translate(11.250000, 17.500000)"><path d="M5 2.5C5 1.12 3.88 0 2.5 0 1.12 0 0 1.12 0 2.5 0 3.88 1.12 5 2.5 5 3.88 5 5 3.88 5 2.5" id="path38" fill="#FFFFFF"/></g></g></g></g></g></g></g></g><g id="1" transform="translate(242.000000, 47.000000)"><g id="svg2"><g id="g10" transform="translate(23.750000, 23.750000) scale(1, -1) translate(-23.750000, -23.750000) "><g id="g12"><g id="g14-Clipped"><mask id="mask-40" fill="white"><use xlink:href="#path-39"/></mask><g id="path18"/><g id="g14" mask="url(#mask-40)"><g id="g20" transform="translate(14.267625, 14.179750)" fill="#9AAAB4"><path d="M0 3.75L4.64 8.39C2.89 10.84 1.86 13.83 1.86 17.07 1.86 25.36 8.57 32.07 16.86 32.07 25.14 32.07 31.86 25.36 31.86 17.07 31.86 8.79 25.14 2.07 16.86 2.07 13.62 2.07 10.63 3.11 8.18 4.85L3.54 0.22 0 3.75 0 3.75Z" id="path22"/></g><g id="g24" transform="translate(21.124250, 21.250000)" fill="#BDDDF4"><path d="M0 10C0 4.48 4.48 0 10 0 15.52 0 20 4.48 20 10 20 15.52 15.52 20 10 20 4.48 20 0 15.52 0 10" id="path26"/></g><g id="g28" transform="translate(0.214875, 1.035125)" fill="#67757F"><path d="M2.5 8.75L13.11 19.36C14.08 20.33 15.67 20.33 16.64 19.36L20.18 15.82C21.15 14.84 21.15 13.26 20.18 12.29L16.64 8.75 9.57 1.68C7.62-0.27 4.45-0.27 2.5 1.68 0.55 3.63 0.55 6.8 2.5 8.75" id="path30"/></g></g></g></g></g></g></g><g id="1" transform="translate(341.000000, 143.000000)"><g id="svg2"><g id="g10" transform="translate(23.750000, 23.750000) scale(1, -1) translate(-23.750000, -23.750000) "><g id="g12"><g id="g14-Clipped"><mask id="mask-42" fill="white"><use xlink:href="#path-41"/></mask><g id="path18"/><g id="g14" mask="url(#mask-42)"><g transform="translate(1.250000, 1.250000)"><g id="g20" transform="translate(0.000000, 0.828875)"><path d="M22.5 18.75C22.3 19.11 22.06 19.42 21.77 19.64 21.47 19.85 21.11 19.98 20.7 20.06 20.98 20.37 21.2 20.69 21.31 21.04 21.42 21.38 21.44 21.77 21.39 22.18 21.76 22.01 22.14 21.9 22.5 21.9 22.86 21.9 23.24 22.01 23.62 22.18 23.57 21.77 23.58 21.38 23.69 21.04 23.8 20.69 24.02 20.37 24.31 20.06 23.9 19.98 23.53 19.85 23.24 19.64 22.94 19.42 22.7 19.11 22.5 18.75M39.12 18.16C44.37 19.87 45.41 22.14 44.36 26.18 43.17 25.8 41.73 26.18 41.52 26.83 41.31 27.47 42.25 28.63 43.44 29.02 41.91 32.91 39.73 34.13 34.49 32.43 32.48 31.78 30.44 30.57 28.67 29.14 29.48 31.26 30 33.58 30 35.69 30 41.2 28.16 42.9 23.99 43.15 23.99 41.9 23.18 40.65 22.5 40.65 21.82 40.65 21.01 41.9 21.01 43.15 16.84 42.9 15 41.2 15 35.69 15 33.58 15.52 31.26 16.33 29.14 14.56 30.57 12.52 31.78 10.51 32.43 5.27 34.13 3.09 32.91 1.56 29.02 2.75 28.63 3.69 27.47 3.48 26.83 3.27 26.19 1.83 25.8 0.64 26.18 -0.41 22.14 0.63 19.87 5.88 18.16 7.89 17.51 10.25 17.29 12.52 17.41 10.62 16.16 8.83 14.6 7.59 12.89 4.35 8.43 4.85 5.98 8.07 3.32 8.8 4.33 10.2 4.87 10.75 4.47 11.29 4.07 11.22 2.58 10.48 1.57 14-0.68 16.49-0.39 19.73 4.07 20.97 5.78 21.91 7.96 22.5 10.15 23.09 7.96 24.03 5.78 25.27 4.07 28.52-0.39 31-0.68 34.52 1.57 33.78 2.58 33.71 4.07 34.26 4.47 34.8 4.87 36.2 4.34 36.93 3.32 40.16 5.98 40.65 8.43 37.41 12.89 36.17 14.6 34.39 16.16 32.48 17.41 34.75 17.29 37.11 17.51 39.12 18.16" id="path22" fill="#F4ABBA"/></g><g id="g24" transform="translate(10.993625, 20.393125)"><path d="M10 1.25C9.85 0.57 9.18 0.15 8.51 0.3L1.19 1.93C0.51 2.08 0.09 2.74 0.24 3.42 0.39 4.09 1.06 4.52 1.73 4.37L9.05 2.74C9.73 2.59 10.15 1.92 10 1.25" id="path26" fill="#FFFFFF"/></g><g id="g28" transform="translate(20.963750, 17.620875)"><path d="M1.25 3.75C1.4 4.43 2.07 4.85 2.74 4.7L10.06 3.07C10.74 2.92 11.16 2.26 11.01 1.58 10.86 0.91 10.2 0.48 9.52 0.63L2.2 2.26C1.53 2.41 1.1 3.08 1.25 3.75" id="path30" fill="#FFFFFF"/></g><g id="g32" transform="translate(15.963750, 20.120875)"><path d="M6.25 1.25C5.67 0.88 4.9 1.05 4.53 1.64L0.5 7.96C0.13 8.54 0.3 9.32 0.88 9.69 1.46 10.06 2.24 9.89 2.61 9.3L6.63 2.98C7 2.39 6.83 1.62 6.25 1.25" id="path34" fill="#FFFFFF"/></g><g id="g36" transform="translate(21.960500, 11.055875)"><path d="M1.25 8.75C1.83 9.12 2.61 8.95 2.98 8.37L7 2.04C7.37 1.46 7.2 0.69 6.62 0.31 6.04-0.06 5.26 0.11 4.89 0.7L0.87 7.02C0.5 7.61 0.67 8.38 1.25 8.75" id="path38" fill="#FFFFFF"/></g><g id="g40" transform="translate(21.235375, 21.341500)"><path d="M1.25 1.25C0.58 1.4 0.15 2.07 0.3 2.74L1.93 10.06C2.08 10.74 2.74 11.16 3.42 11.01 4.09 10.86 4.52 10.19 4.37 9.52L2.74 2.2C2.59 1.53 1.92 1.1 1.25 1.25" id="path42" fill="#FFFFFF"/></g><g id="g44" transform="translate(18.463750, 11.370875)"><path d="M3.75 10C4.43 9.85 4.85 9.18 4.7 8.51L3.07 1.19C2.92 0.51 2.26 0.09 1.58 0.24 0.91 0.39 0.48 1.06 0.63 1.73L2.26 9.05C2.41 9.73 3.08 10.15 3.75 10" id="path46" fill="#FFFFFF"/></g><g id="g48" transform="translate(20.964375, 20.122125)"><path d="M1.25 1.25C0.88 1.83 1.05 2.6 1.63 2.98L7.96 7C8.54 7.37 9.32 7.2 9.69 6.62 10.06 6.04 9.89 5.26 9.3 4.89L2.98 0.87C2.39 0.5 1.62 0.67 1.25 1.25" id="path50" fill="#FFFFFF"/></g><g id="g52" transform="translate(13.464375, 15.122125)"><path d="M8.75 6.25C9.12 5.67 8.95 4.89 8.37 4.52L2.04 0.5C1.46 0.13 0.69 0.3 0.31 0.88 -0.06 1.46 0.11 2.24 0.7 2.61L7.02 6.63C7.61 7.01 8.38 6.83 8.75 6.25" id="path54" fill="#FFFFFF"/></g><g id="g56" transform="translate(26.264625, 8.042000)"><path d="M1.25 5C2.42 5.74 3.96 5.4 4.7 4.23 5.44 3.07 5.1 1.52 3.93 0.78 2.77 0.04 1.22 0.38 0.48 1.55 -0.26 2.71 0.09 4.26 1.25 5" id="path58" fill="#EA596E"/></g><g id="g60" transform="translate(13.187250, 26.449000)"><path d="M5 1.25C3.84 0.51 2.29 0.85 1.55 2.02 0.81 3.18 1.15 4.73 2.32 5.47 3.48 6.21 5.03 5.87 5.77 4.7 6.51 3.54 6.17 1.99 5 1.25" id="path62" fill="#EA596E"/></g><g id="g64" transform="translate(16.837125, 9.051500)"><path d="M3.75 5C5.1 4.7 5.95 3.36 5.65 2.02 5.35 0.67 4.01-0.18 2.67 0.12 1.32 0.42 0.47 1.75 0.77 3.1 1.07 4.45 2.4 5.3 3.75 5" id="path66" fill="#EA596E"/></g><g id="g68" transform="translate(21.883500, 29.882875)"><path d="M2.5 1.25C1.15 1.55 0.3 2.89 0.6 4.23 0.9 5.58 2.24 6.43 3.58 6.13 4.93 5.83 5.78 4.5 5.48 3.15 5.18 1.8 3.85 0.95 2.5 1.25" id="path70" fill="#EA596E"/></g><g id="g72" transform="translate(11.867125, 12.970000)"><path d="M5 5C5.74 3.83 5.4 2.29 4.23 1.55 3.07 0.81 1.52 1.15 0.78 2.32 0.04 3.48 0.38 5.03 1.55 5.77 2.71 6.51 4.26 6.16 5 5" id="path74" fill="#EA596E"/></g><g id="g76" transform="translate(27.291250, 24.148500)"><path d="M1.25 1.25C0.51 2.42 0.85 3.96 2.02 4.7 3.18 5.44 4.73 5.1 5.47 3.93 6.21 2.77 5.87 1.22 4.7 0.48 3.54-0.26 1.99 0.09 1.25 1.25" id="path78" fill="#EA596E"/></g><g id="g80" transform="translate(28.284875, 15.993625)"><path d="M1.25 3.75C1.55 5.1 2.89 5.95 4.23 5.65 5.58 5.35 6.43 4.01 6.13 2.67 5.83 1.32 4.5 0.47 3.15 0.77 1.8 1.07 0.95 2.4 1.25 3.75" id="path82" fill="#EA596E"/></g><g id="g84" transform="translate(8.672500, 20.769625)"><path d="M5 2.5C4.7 1.15 3.37 0.3 2.02 0.6 0.67 0.9-0.18 2.24 0.12 3.59 0.42 4.93 1.75 5.78 3.1 5.48 4.45 5.18 5.3 3.85 5 2.5" id="path86" fill="#EA596E"/></g><g id="g88" transform="translate(17.500000, 16.477000)"><path d="M10 5C10 2.24 7.76 0 5 0 2.24 0 0 2.24 0 5 0 7.76 2.24 10 5 10 7.76 10 10 7.76 10 5" id="path90" fill="#FFCC4D"/></g></g></g></g></g></g></g></g><g id="1" transform="translate(341.000000, 47.000000)"><g id="svg2"><g id="g10" transform="translate(23.750000, 23.750000) scale(1, -1) translate(-23.750000, -23.750000) "><g id="g12"><g id="g14-Clipped"><mask id="mask-44" fill="white"><use xlink:href="#path-43"/></mask><g id="path18"/><g id="g14" mask="url(#mask-44)"><g transform="translate(5.000000, 1.250000)"><g id="g20" transform="translate(0.000000, 7.500000)"><path d="M31.25 21.25C31.25 7.5 37.5 8.75 37.5 2.5 37.5 2.5 37.5 0 35 0L2.5 0C0 0 0 2.5 0 2.5 0 8.75 6.25 7.5 6.25 21.25 6.25 28.15 11.85 33.75 18.75 33.75 25.65 33.75 31.25 28.15 31.25 21.25" id="path22" fill="#FFAC33"/></g><g id="g24" transform="translate(15.000000, 37.500000)"><path d="M7.5 3.75C7.5 5.82 5.82 7.5 3.75 7.5 1.68 7.5 0 5.82 0 3.75 0 1.68 1.68 0 3.75 0 5.82 0 7.5 1.68 7.5 3.75" id="path26" fill="#FFAC33"/></g><g id="g28" transform="translate(13.750000, 0.000000)"><path d="M5 0C7.76 0 10 2.24 10 5L0 5C0 2.24 2.24 0 5 0" id="path30" fill="#FFAC33"/></g></g></g></g></g></g></g></g><g id="1" transform="translate(341.000000, 241.000000)"><g id="svg2"><g id="g10" transform="translate(23.750000, 23.750000) scale(1, -1) translate(-23.750000, -23.750000) "><g id="g12"><g id="g14-Clipped"><mask id="mask-46" fill="white"><use xlink:href="#path-45"/></mask><g id="path18"/><g id="g14" mask="url(#mask-46)"><g transform="translate(2.500000, 2.500000)" id="g20"><path d="M42.5 21.25C42.5 9.51 32.99 0 21.25 0 9.51 0 0 9.51 0 21.25 0 32.99 9.51 42.5 21.25 42.5 32.99 42.5 42.5 32.99 42.5 21.25" id="path22" fill="#DD2E44"/></g></g></g></g></g></g></g><g id="1" transform="translate(102.000000, 294.000000)"><g id="svg2"><g id="g10" transform="translate(24.000000, 24.500000) scale(1, -1) translate(-24.000000, -24.500000) translate(0.000000, 0.500000)"><g id="g12"><g id="g14-Clipped"><mask id="mask-48" fill="white"><use xlink:href="#path-47"/></mask><g id="path18"/><g id="g14" mask="url(#mask-48)"><g transform="translate(2.500000, 2.500000)" id="g20"><path d="M42.5 21.25C42.5 9.51 32.99 0 21.25 0 9.51 0 0 9.51 0 21.25 0 32.99 9.51 42.5 21.25 42.5 32.99 42.5 42.5 32.99 42.5 21.25" id="path22" fill="#3B88C3"/></g></g></g></g></g></g></g><g id="2" transform="translate(152.000000, 241.000000)"><g id="svg2"><g id="g10" transform="translate(23.750000, 23.750000) scale(1, -1) translate(-23.750000, -23.750000) "><g id="g12"><g id="g14-Clipped"><mask id="mask-50" fill="white"><use xlink:href="#path-49"/></mask><g id="path18"/><g id="g14" mask="url(#mask-50)"><g transform="translate(1.250000, 1.250000)"><g id="g20"><path d="M45 5C45 2.24 42.76 0 40 0L5 0C2.24 0 0 2.24 0 5L0 40C0 42.76 2.24 45 5 45L40 45C42.76 45 45 42.76 45 40L45 5 45 5Z" id="path22" fill="#3B88C3"/></g><g id="g24" transform="translate(8.750000, 8.750000)"><path d="M27.5 18.75L16.25 18.75 16.25 27.5 0 13.75 16.25 0 16.25 8.75 27.5 8.75 27.5 18.75 27.5 18.75Z" id="path26" fill="#FFFFFF"/></g></g></g></g></g></g></g></g><g id="26" transform="translate(152.000000, 295.000000)"><g id="svg2"><g id="g10" transform="translate(23.750000, 23.750000) scale(1, -1) translate(-23.750000, -23.750000) "><g id="g12"><g id="g14-Clipped"><mask id="mask-52" fill="white"><use xlink:href="#path-51"/></mask><g id="path18"/><g id="g14" mask="url(#mask-52)"><g transform="translate(0.000000, 2.500000)"><g id="g20" transform="translate(0.816625, 0.000000)"><path d="M3.75 0C1.45 0 0.43 1.67 1.49 3.72L21 41.29C22.06 43.33 23.8 43.33 24.86 41.29L44.37 3.72C45.44 1.67 44.42 0 42.12 0L3.75 0 3.75 0Z" id="path22" fill="#FFCC4D"/></g><g id="g24" transform="translate(19.711250, 4.174750)"><path d="M1.25 26.25C1.25 27.88 2.45 28.89 4.04 28.89 5.59 28.89 6.83 27.84 6.83 26.25L6.83 11.33C6.83 9.74 5.59 8.69 4.04 8.69 2.45 8.69 1.25 9.7 1.25 11.33L1.25 26.25 1.25 26.25ZM1.02 3.38C1.02 5.05 2.37 6.41 4.04 6.41 5.71 6.41 7.06 5.05 7.06 3.38 7.06 1.72 5.71 0.36 4.04 0.36 2.37 0.36 1.02 1.72 1.02 3.38L1.02 3.38Z" id="path26" fill="#231F20"/></g></g></g></g></g></g></g></g><g id="27" transform="translate(50.000000, 241.000000)"><g id="svg2"><g id="g10" transform="translate(23.750000, 23.750000) scale(1, -1) translate(-23.750000, -23.750000) "><g id="g12"><g id="g14-Clipped"><mask id="mask-54" fill="white"><use xlink:href="#path-53"/></mask><g id="path18"/><g id="g14" mask="url(#mask-54)"><g transform="translate(1.250000, 1.250000)"><g id="g20"><path d="M45 5C45 2.24 42.76 0 40 0L5 0C2.24 0 0 2.24 0 5L0 40C0 42.76 2.24 45 5 45L40 45C42.76 45 45 42.76 45 40L45 5 45 5Z" id="path22" fill="#3B88C3"/></g><g id="g24" transform="translate(8.750000, 8.750000)"><path d="M0 18.75L11.25 18.75 11.25 27.5 27.5 13.75 11.25 0 11.25 8.75 0 8.75 0 18.75 0 18.75Z" id="path26" fill="#FFFFFF"/></g></g></g></g></g></g></g></g><g id="2709" transform="translate(102.000000, 47.000000)"><g id="svg2"><g id="g10" transform="translate(23.750000, 23.750000) scale(1, -1) translate(-23.750000, -23.750000) "><g id="g12"><g id="g14-Clipped"><mask id="mask-56" fill="white"><use xlink:href="#path-55"/></mask><g id="path18"/><g id="g14" mask="url(#mask-56)"><g transform="translate(0.000000, 6.250000)"><g id="g20" transform="translate(1.250000, 1.250000)"><path d="M45 5C45 2.24 42.76 0 40 0L5 0C2.24 0 0 2.24 0 5L0 27.5C0 30.26 2.24 32.5 5 32.5L40 32.5C42.76 32.5 45 30.26 45 27.5L45 5 45 5Z" id="path22" fill="#CCD6DD"/></g><g id="g24" transform="translate(1.187125, 1.705375)"><path d="M15 16.25L0.86 2.11C0.83 2.07 0.81 2.03 0.78 2 1.21 1.28 1.8 0.69 2.51 0.27 2.55 0.29 2.59 0.31 2.63 0.34L16.77 14.48C17.26 14.97 17.26 15.76 16.77 16.25 16.28 16.74 15.49 16.74 15 16.25" id="path26" fill="#99AAB5"/></g><g id="g28" transform="translate(28.028625, 1.200000)"><path d="M17.5 2.5C17.47 2.54 17.46 2.58 17.43 2.61L3.29 16.76C2.8 17.24 2.01 17.24 1.52 16.76 1.03 16.27 1.03 15.48 1.52 14.99L15.66 0.85C15.69 0.81 15.74 0.8 15.77 0.77 16.49 1.2 17.08 1.79 17.5 2.5" id="path30" fill="#99AAB5"/></g><g id="g32" transform="translate(1.250000, 7.500000)"><path d="M40 26.25L5 26.25C2.24 26.25 0 24.01 0 21.25L0 19.96 18.16 1.84C20.53-0.52 24.4-0.52 26.77 1.84L45 19.99 45 21.25C45 24.01 42.76 26.25 40 26.25" id="path34" fill="#99AAB5"/></g><g id="g36" transform="translate(1.250000, 10.000000)"><path d="M40 23.75L5 23.75C3.02 23.75 1.31 22.58 0.51 20.91L18.96 2.45C20.92 0.5 24.08 0.5 26.04 2.45L44.49 20.91C43.69 22.58 41.99 23.75 40 23.75" id="path38" fill="#E1E8ED"/></g></g></g></g></g></g></g></g><g id="1" transform="translate(102.000000, 191.000000)"><g id="svg2"><g id="g10" transform="translate(23.750000, 23.750000) scale(1, -1) translate(-23.750000, -23.750000) "><g id="g12"><g id="g14-Clipped"><mask id="mask-58" fill="white"><use xlink:href="#path-57"/></mask><g id="path18"/><g id="g14" mask="url(#mask-58)"><g transform="translate(2.500000, 0.000000)"><g id="g20" transform="translate(1.123000, 0.076875)"><path d="M37.5 16.25C36.75 24.52 32.63 28.67 32.63 28.67L25.13 38.67 23.88 38.67 20.13 38.67 16.38 38.67 15.13 38.67 7.63 28.67C7.63 28.67 5.85 26.88 4.42 23.33 1.93 22.5 0.13 20.19 0.13 17.42 0.13 15.61 0.91 14 2.14 12.85 1.67 11.98 1.38 10.99 1.38 9.92 1.38 7.48 2.8 5.38 4.85 4.35 6.45 1.95 8.59 1.17 10.13 1.17L30.13 1.17C31.85 1.17 34.34 2.15 35.97 5.31 38.39 6.17 40.13 8.46 40.13 11.17 40.13 13.27 39.09 15.12 37.5 16.25" id="path22" fill="#FDD888"/></g><g id="g24" transform="translate(12.500000, 38.750000)"><path d="M8.75 0C9.44 0 10.07 0.2 10.63 0.52 11.18 0.2 11.81 0 12.5 0 14.57 0 17.5 2.93 17.5 5 17.5 5 17.5 7.5 15 7.5 14.02 7.5 13.75 6.25 12.5 6.25 11.25 6.25 11.25 7.5 8.75 7.5 6.25 7.5 6.25 6.25 5 6.25 3.75 6.25 3.49 7.5 2.5 7.5 0 7.5 0 5 0 5 0 2.93 2.93 0 5 0 5.69 0 6.32 0.2 6.88 0.52 7.43 0.2 8.06 0 8.75 0" id="path26" fill="#FDD888"/></g><g id="g28" transform="translate(13.750000, 37.500000)"><path d="M15 1.25C15 0.56 14.44 0 13.75 0L1.25 0C0.56 0 0 0.56 0 1.25 0 1.94 0.56 2.5 1.25 2.5L13.75 2.5C14.44 2.5 15 1.94 15 1.25" id="path30" fill="#BF6952"/></g><g id="g32" transform="translate(13.626750, 5.572500)"><path d="M15 10C15 15.6 4.27 15.23 4.27 18.61 4.27 20.24 5.9 21.04 7.79 21.04 10.96 21.04 11.53 19.08 12.96 19.08 13.98 19.08 14.47 19.7 14.47 20.39 14.47 21.99 11.94 23.21 9.51 23.63L9.51 25.18C9.51 26.14 8.7 26.93 7.7 26.93 6.69 26.93 5.88 26.14 5.88 25.18L5.88 23.57C3.23 22.99 0.95 21.23 0.95 18.35 0.95 12.98 11.68 13.2 11.68 9.42 11.68 8.11 10.21 6.81 7.79 6.81 4.16 6.81 2.96 9.17 1.48 9.17 0.77 9.17 0.12 8.59 0.12 7.71 0.12 6.32 2.55 4.65 5.88 4.18 5.88 4.18 5.88 4.17 5.88 4.17L5.88 2.42C5.88 1.46 6.69 0.67 7.7 0.67 8.7 0.67 9.51 1.46 9.51 2.42L9.51 4.17C9.51 4.19 9.51 4.21 9.5 4.22 12.5 4.76 15 6.64 15 10" id="path34" fill="#67757F"/></g></g></g></g></g></g></g></g><g id="1" transform="translate(102.000000, 241.000000)"><g id="svg2"><g id="g10" transform="translate(23.750000, 23.750000) scale(1, -1) translate(-23.750000, -23.750000) "><g id="g12"><g id="g14-Clipped"><mask id="mask-60" fill="white"><use xlink:href="#path-59"/></mask><g id="path18"/><g id="g14" mask="url(#mask-60)"><g transform="translate(2.500000, 1.250000)"><g id="g20" stroke-width="1" fill="none"><path d="M42.5 5C42.5 2.24 40.26 0 37.5 0L5 0C2.24 0 0 2.24 0 5L0 40C0 42.76 2.24 45 5 45L37.5 45C40.26 45 42.5 42.76 42.5 40L42.5 5 42.5 5Z" id="path22" fill="#CCD6DD"/></g><path d="M31.25 12.5L37.5 12.5 37.5 6.25 31.25 6.25 31.25 12.5 31.25 12.5ZM22.5 12.5L28.75 12.5 28.75 6.25 22.5 6.25 22.5 12.5 22.5 12.5ZM13.75 12.5L20 12.5 20 6.25 13.75 6.25 13.75 12.5 13.75 12.5ZM5 12.5L11.25 12.5 11.25 6.25 5 6.25 5 12.5 5 12.5ZM11.25 32.5L5 32.5 5 38.75 11.25 38.75 11.25 32.5 11.25 32.5ZM20 32.5L13.75 32.5 13.75 38.75 20 38.75 20 32.5 20 32.5ZM28.75 32.5L22.5 32.5 22.5 38.75 28.75 38.75 28.75 32.5 28.75 32.5ZM31.25 38.75L37.5 38.75 37.5 32.5 31.25 32.5 31.25 38.75 31.25 38.75ZM31.25 30L37.5 30 37.5 23.75 31.25 23.75 31.25 30 31.25 30ZM31.25 21.25L37.5 21.25 37.5 15 31.25 15 31.25 21.25 31.25 21.25ZM22.5 21.25L28.75 21.25 28.75 15 22.5 15 22.5 21.25 22.5 21.25ZM13.75 21.25L20 21.25 20 15 13.75 15 13.75 21.25 13.75 21.25ZM11.25 15L5 15 5 21.25 11.25 21.25 11.25 15 11.25 15ZM11.25 23.75L5 23.75 5 30 11.25 30 11.25 23.75 11.25 23.75ZM22.5 30L28.75 30 28.75 23.75 22.5 23.75 22.5 30 22.5 30ZM20 23.75L13.75 23.75 13.75 30 20 30 20 23.75 20 23.75ZM38.75 41.25L3.75 41.25C3.06 41.25 2.5 40.69 2.5 40L2.5 5C2.5 4.31 3.06 3.75 3.75 3.75L38.75 3.75C39.44 3.75 40 4.31 40 5L40 40C40 40.69 39.44 41.25 38.75 41.25L38.75 41.25Z" id="path24" fill="#E1E8ED"/><g id="g26" stroke-width="1" fill="none" transform="translate(2.497500, 3.750000)"><path d="M2.5 0C2.1 0 1.69 0.1 1.32 0.3 0.1 0.95-0.35 2.47 0.3 3.69L9.05 19.93C9.43 20.63 10.11 21.11 10.89 21.22 11.67 21.34 12.46 21.08 13.02 20.52L20.62 12.92 32.79 36.16C33.43 37.38 34.94 37.86 36.16 37.21 37.39 36.57 37.86 35.06 37.22 33.84L23.47 7.59C23.1 6.89 22.42 6.4 21.63 6.28 20.85 6.17 20.05 6.42 19.49 6.98L11.86 14.61 4.7 1.32C4.25 0.48 3.39 0 2.5 0" id="path28" fill="#3E721D"/></g></g></g></g></g></g></g></g><g id="1" transform="translate(195.000000, 191.000000)"><g id="svg2"><g id="g10" transform="translate(23.750000, 23.750000) scale(1, -1) translate(-23.750000, -23.750000) "><g id="g12"><g id="g14-Clipped"><mask id="mask-62" fill="white"><use xlink:href="#path-61"/></mask><g id="path18"/><g id="g14" mask="url(#mask-62)"><g transform="translate(1.250000, 1.250000)"><g id="g20" stroke-width="1" fill="none" transform="translate(3.750000, 1.250000)"><path d="M37.5 5C37.5 2.25 35.25 0 32.5 0L5 0C2.25 0 0 2.25 0 5L0 26.25C0 29 2.25 31.25 5 31.25L32.5 31.25C35.25 31.25 37.5 29 37.5 26.25L37.5 5 37.5 5Z" id="path22" fill="#FDD888"/></g><g id="g24" stroke-width="1" fill="none" transform="translate(0.000000, 26.250000)"><path d="M45 5C45 2.25 42.75 0 40 0L5 0C2.25 0 0 2.25 0 5 0 7.75 2.25 10 5 10L40 10C42.75 10 45 7.75 45 5" id="path26" fill="#FDD888"/></g><path d="M41.25 23.75L3.75 23.75 3.75 26.25 41.25 26.25 41.25 23.75 41.25 23.75Z" id="path28" fill="#FCAB40"/><g id="g30" stroke-width="1" fill="none" transform="translate(17.500000, 1.249375)"><path d="M6.25 40L3.75 40C1.68 40 0 38.32 0 36.25L0 36.25 0 0 10 0 10 36.25C10 38.32 8.32 40 6.25 40" id="path32" fill="#DA2F47"/></g><g id="g34" stroke-width="1" fill="none" transform="translate(5.000000, 36.250000)"><path d="M15 0C16.38 0 16.58 0.65 15.45 1.43L7.05 7.32C5.92 8.11 4.44 7.77 3.76 6.58L1.24 2.17C0.56 0.98 1.13 0 2.5 0L15 0 15 0Z" id="path36" fill="#DA2F47"/></g><g id="g38" stroke-width="1" fill="none" transform="translate(23.750000, 36.250000)"><path d="M1.25 0C-0.12 0-0.33 0.65 0.8 1.43L9.2 7.32C10.33 8.11 11.81 7.77 12.49 6.58L15.01 2.17C15.69 0.98 15.13 0 13.75 0L1.25 0 1.25 0Z" id="path40" fill="#DA2F47"/></g></g></g></g></g></g></g></g><g id="1" transform="translate(-1.000000, 143.000000)"><g id="svg2"><g id="g10" transform="translate(23.750000, 23.750000) scale(1, -1) translate(-23.750000, -23.750000) "><g id="g12"><g id="g14-Clipped"><mask id="mask-64" fill="white"><use xlink:href="#path-63"/></mask><g id="path18"/><g id="g14" mask="url(#mask-64)"><g transform="translate(1.250000, 1.250000)"><g id="g20"><path d="M45 5C45 2.24 42.76 0 40 0L5 0C2.24 0 0 2.24 0 5L0 40C0 42.76 2.24 45 5 45L40 45C42.76 45 45 42.76 45 40L45 5 45 5Z" id="path22" fill="#3B88C3"/></g><g id="g24" transform="translate(15.641500, 8.322125)"><path d="M0 25C0 26.59 1.09 28.02 3.02 28.02L12.95 28.02C14.65 28.02 15.54 26.71 15.54 25.35 15.54 24.03 14.69 22.68 12.95 22.68L5.81 22.68 5.81 17.02 11.82 17.02C13.68 17.02 14.61 15.7 14.61 14.38 14.61 13.02 13.68 11.67 11.82 11.67L5.81 11.67 5.81 3.22C5.81 1.28 4.57 0.2 2.91 0.2 1.24 0.2 0 1.28 0 3.22L0 25 0 25Z" id="path26" fill="#FFFFFF"/></g></g></g></g></g></g></g></g><g id="1" transform="translate(341.000000, 95.000000)"><g id="svg2"><g id="g10" transform="translate(23.750000, 23.750000) scale(1, -1) translate(-23.750000, -23.750000) "><g id="g12"><g id="g14-Clipped"><mask id="mask-66" fill="white"><use xlink:href="#path-65"/></mask><g id="path18"/><g id="g14" mask="url(#mask-66)"><g transform="translate(1.250000, 1.250000)"><g id="g20"><path d="M45 5C45 2.24 42.76 0 40 0L5 0C2.24 0 0 2.24 0 5L0 40C0 42.76 2.24 45 5 45L40 45C42.76 45 45 42.76 45 40L45 5 45 5Z" id="path22" fill="#3B88C3"/></g><g id="g24" transform="translate(12.095375, 8.496750)"><path d="M7.5 22.5L3.28 22.5C1.42 22.5 0.64 23.86 0.64 25.17 0.64 26.53 1.61 27.85 3.28 27.85L17.54 27.85C19.2 27.85 20.17 26.53 20.17 25.17 20.17 23.86 19.4 22.5 17.54 22.5L13.31 22.5 13.31 3.04C13.31 1.11 12.07 0.02 10.41 0.02 8.74 0.02 7.5 1.11 7.5 3.04L7.5 22.5 7.5 22.5Z" id="path26" fill="#FFFFFF"/></g></g></g></g></g></g></g></g><g id="1" transform="translate(152.000000, 95.000000)"><g id="svg2"><g id="g10" transform="translate(23.750000, 23.750000) scale(1, -1) translate(-23.750000, -23.750000) "><g id="g12"><g id="g14-Clipped"><mask id="mask-68" fill="white"><use xlink:href="#path-67"/></mask><g id="path18"/><g id="g14" mask="url(#mask-68)"><g transform="translate(5.000000, 1.250000)"><g id="g20" transform="translate(1.250000, 0.000000)"><path d="M0 31.25L0 15.78C0 13.23 1.37 12.68 1.37 12.68 1.37 12.68 13.56 3.09 15.83 1.3 18.11-0.49 17.5 3.28 17.5 3.28L17.5 17.5 0 31.25 0 31.25Z" id="path22" fill="#662113"/></g><g id="g24" transform="translate(17.500000, 0.000000)"><path d="M18.75 31.25L18.75 15.78C18.75 13.23 17.42 12.68 17.42 12.68 17.42 12.68 5.21 3.09 2.94 1.3 0.66-0.49 1.25 3.28 1.25 3.28L1.25 17.5 18.75 31.25 18.75 31.25Z" id="path26" fill="#C1694F"/></g><g id="g28" transform="translate(0.361375, 16.875000)"><path d="M20 27.5C19.06 28.26 17.52 28.26 16.57 27.5L1.6 15.59C0.65 14.83 0.65 13.58 1.6 12.82L16.62 0.76C17.57 0 19.11 0 20.05 0.76L35.18 12.92C36.12 13.69 36.12 14.93 35.18 15.69L20 27.5 20 27.5Z" id="path30" fill="#D99E82"/></g><g id="g32" transform="translate(17.500000, 0.312500)"><path d="M1.25 0C0.56 0 0 0.6 0 1.35L0 17.51C0 18.25 0.56 18.85 1.25 18.85 1.94 18.85 2.5 18.25 2.5 17.51L2.5 1.35C2.5 0.6 1.94 0 1.25 0" id="path34" fill="#D99E82"/></g><g id="g36" transform="translate(6.250000, 15.205125)"><path d="M25 6.25C25 4.87 25.13 4.19 23.75 3.2L20.66 0.85C19.28-0.15 18.75 0.71 18.75 2.09L18.75 5.79C18.75 6.03 18.72 6.29 18.4 6.55 15.18 9.21 2.67 19.15 0.39 20.98L6.17 25.58C7.75 24.42 19.61 15.26 24.57 11.36 24.82 11.16 25 10.95 25 10.71L25 6.25 25 6.25Z" id="path38" fill="#99AAB5"/></g><g id="g40" transform="translate(5.820375, 20.312500)"><path d="M25 6.25C20.04 10.16 8.18 19.31 6.6 20.47L4.45 18.76 0.82 15.87C3.1 14.04 15.61 4.1 18.83 1.44 19.02 1.29 19.1 1.13 19.14 0.98L25.31 5.94C25.23 6.05 25.13 6.15 25 6.25" id="path42" fill="#CCD6DD"/></g><g id="g44" transform="translate(8.750000, 16.455125)"><path d="M22.5 5L22.5 9.46C22.5 9.7 22.32 9.91 22.07 10.11 17.11 14.01 5.25 23.17 3.67 24.33L1.08 22.27C5.32 18.93 16.68 10.17 19.65 7.8 19.97 7.55 20 7.28 20 7.04L20 1 21.25 1.95C22.63 2.94 22.5 3.62 22.5 5" id="path46" fill="#CCD6DD"/></g><g id="g48" transform="translate(9.570375, 24.062500)"><path d="M21.25 2.5C16.29 6.41 4.43 15.56 2.85 16.72L0.26 14.66C4.5 11.32 15.86 2.56 18.83 0.19 18.88 0.16 18.91 0.12 18.94 0.08L21.56 2.19C21.48 2.3 21.38 2.4 21.25 2.5" id="path50" fill="#E1E8ED"/></g></g></g></g></g></g></g></g><g id="1" transform="translate(50.000000, 191.000000)"><g id="svg2"><g id="g10" transform="translate(23.750000, 23.750000) scale(1, -1) translate(-23.750000, -23.750000) "><g id="g12"><g id="g14-Clipped"><mask id="mask-70" fill="white"><use xlink:href="#path-69"/></mask><g id="path18"/><g id="g14" mask="url(#mask-70)"><g transform="translate(1.250000, 2.500000)"><g id="g20" transform="translate(1.250625, 0.000000)"><path d="M0 22.5L10 31.25 30 30 31.25 10 22.5 0C22.5 0 22.5 7.5 15 15 7.5 22.5 0 22.5 0 22.5" id="path22" fill="#A0041E"/></g><g id="g24" transform="translate(1.215875, 0.000000)"><path d="M0 0C0 0-0.04 9.97 3.73 13.75 7.51 17.53 17.53 17.27 17.53 17.27 17.53 17.27 17.53 7.5 13.78 3.75 10.03 0 0 0 0 0" id="path26" fill="#FFAC33"/></g><g id="g28" transform="translate(6.248750, 5.000000)"><path d="M0 5C0 7.76 2.24 10 5 10 7.76 10 10 7.76 10 5 10 2.24 7.76 0 5 0 2.24 0 0 2.24 0 5" id="path30" fill="#FFCC4D"/></g><g id="g32" transform="translate(9.998750, 8.750625)"><path d="M35 35C35 35 22.5 35 7.5 22.5 0 16.25 0 5 2.5 2.5 5 0 16.25 0 22.5 7.5 35 22.5 35 35 35 35" id="path34" fill="#55ACEE"/></g><g id="g36" transform="translate(28.748750, 27.500625)"><path d="M5 10C2.97 10 1.23 8.79 0.45 7.05 1.08 7.33 1.77 7.5 2.5 7.5 5.26 7.5 7.5 5.26 7.5 2.5 7.5 1.77 7.33 1.08 7.05 0.45 8.79 1.23 10 2.97 10 5 10 7.76 7.76 10 5 10" id="path38" fill="#000000"/></g><g id="g40" transform="translate(10.000000, 8.750000)"><path d="M0 0C0 0 0 5 1.25 6.25 2.5 7.5 17.5 20 18.75 18.75 20 17.5 7.5 2.5 6.25 1.25 5 0 0 0 0 0" id="path42" fill="#A0041E"/></g></g></g></g></g></g></g></g><g id="274" transform="translate(195.000000, 95.000000)"><g id="svg2"><g id="g10" transform="translate(23.750000, 23.750000) scale(1, -1) translate(-23.750000, -23.750000) "><g id="g12"><g id="g14-Clipped"><mask id="mask-72" fill="white"><use xlink:href="#path-71"/></mask><g id="path18"/><g id="g14" mask="url(#mask-72)"><g transform="translate(1.250000, 1.250000)"><g id="g20"><path d="M45 5C45 2.24 42.76 0 40 0L5 0C2.24 0 0 2.24 0 5L0 40C0 42.76 2.24 45 5 45L40 45C42.76 45 45 42.76 45 40L45 5 45 5Z" id="path22" fill="#77B255"/></g><g id="g24" transform="translate(5.661625, 6.242125)"><path d="M21.25 16.25L31.55 26.55C32.77 27.77 32.77 29.75 31.55 30.97 30.33 32.19 28.35 32.19 27.13 30.97L16.83 20.67 6.53 30.97C5.31 32.19 3.33 32.19 2.11 30.97 0.89 29.75 0.89 27.77 2.11 26.55L12.41 16.25 2.09 5.93C0.87 4.71 0.87 2.73 2.09 1.51 2.7 0.9 3.5 0.59 4.3 0.59 5.1 0.59 5.9 0.9 6.51 1.51L16.83 11.83 27.13 1.53C27.74 0.92 28.54 0.62 29.34 0.62 30.14 0.62 30.94 0.92 31.55 1.53 32.77 2.76 32.77 4.73 31.55 5.95L21.25 16.25 21.25 16.25Z" id="path26" fill="#FFFFFF"/></g></g></g></g></g></g></g></g><g id="26" transform="translate(293.000000, 241.000000)"><g id="svg2"><g id="g10" transform="translate(24.000000, 24.500000) scale(1, -1) translate(-24.000000, -24.500000) translate(0.000000, 0.500000)"><g id="g12"><g id="g14-Clipped"><mask id="mask-74" fill="white"><use xlink:href="#path-73"/></mask><g id="path18"/><g id="g14" mask="url(#mask-74)"><g transform="translate(1.250000, 1.250000)" id="g20"><path d="M45 22.5C45 10.07 34.93 0 22.5 0 10.07 0 0 10.07 0 22.5 0 34.93 10.07 45 22.5 45 34.93 45 45 34.93 45 22.5" id="path22" fill="#F4ABBA"/></g></g></g></g></g></g></g><g id="26" transform="translate(242.000000, 241.000000)"><g id="svg2"><g id="g10" transform="translate(24.000000, 24.500000) scale(1, -1) translate(-24.000000, -24.500000) translate(0.000000, 0.500000)"><g id="g12"><g id="g14-Clipped"><mask id="mask-76" fill="white"><use xlink:href="#path-75"/></mask><g id="path18"/><g id="g14" mask="url(#mask-76)"><g transform="translate(1.250000, 1.250000)" id="g20"><path d="M45 22.5C45 10.07 34.93 0 22.5 0 10.07 0 0 10.07 0 22.5 0 34.93 10.07 45 22.5 45 34.93 45 45 34.93 45 22.5" id="path22" fill="#FFCC4D"/></g></g></g></g></g></g></g><g id="26" transform="translate(50.000000, 294.000000)"><g id="svg2"><g id="g10" transform="translate(24.000000, 24.500000) scale(1, -1) translate(-24.000000, -24.500000) translate(0.000000, 0.500000)"><g id="g12"><g id="g14-Clipped"><mask id="mask-78" fill="white"><use xlink:href="#path-77"/></mask><g id="path18"/><g id="g14" mask="url(#mask-78)"><g transform="translate(1.250000, 1.250000)" id="g20"><path d="M45 22.5C45 10.07 34.93 0 22.5 0 10.07 0 0 10.07 0 22.5 0 34.93 10.07 45 22.5 45 34.93 45 45 34.93 45 22.5" id="path22" fill="#77B255"/></g></g></g></g></g></g></g><g id="26" transform="translate(-1.000000, 294.000000)"><g id="svg2"><g id="g10" transform="translate(24.000000, 24.500000) scale(1, -1) translate(-24.000000, -24.500000) translate(0.000000, 0.500000)"><g id="g12"><g id="g14-Clipped"><mask id="mask-80" fill="white"><use xlink:href="#path-79"/></mask><g id="path18"/><g id="g14" mask="url(#mask-80)"><g transform="translate(1.250000, 1.250000)" id="g20"><path d="M45 22.5C45 10.07 34.93 0 22.5 0 10.07 0 0 10.07 0 22.5 0 34.93 10.07 45 22.5 45 34.93 45 45 34.93 45 22.5" id="path22" fill="#50E3C2"/></g></g></g></g></g></g></g><g id="26" transform="translate(-1.000000, 241.000000)"><g id="svg2"><g id="g10" transform="translate(23.750000, 23.750000) scale(1, -1) translate(-23.750000, -23.750000) "><g id="g12"><g id="g14-Clipped"><mask id="mask-82" fill="white"><use xlink:href="#path-81"/></mask><g id="path18"/><g id="g14" mask="url(#mask-82)"><g transform="translate(1.250000, 1.250000)" id="g20"><path d="M45 22.5C45 10.07 34.93 0 22.5 0 10.07 0 0 10.07 0 22.5 0 34.93 10.07 45 22.5 45 34.93 45 45 34.93 45 22.5" id="path22" fill="#231F20"/></g></g></g></g></g></g></g><g id="1" transform="translate(242.000000, 191.000000)"><g id="svg2"><g id="g10" transform="translate(23.750000, 23.750000) scale(1, -1) translate(-23.750000, -23.750000) "><g id="g12"><g id="g14-Clipped"><mask id="mask-84" fill="white"><use xlink:href="#path-83"/></mask><g id="path18"/><g id="g14" mask="url(#mask-84)"><g transform="translate(1.250000, 22.500000)" id="g20"><path d="M45 5C45 2.24 42.76 0 40 0L5 0C2.24 0 0 2.24 0 5L0 15C0 17.76 2.24 20 5 20L10 20 40 20C42.76 20 45 17.76 45 15L45 5 45 5Z" id="path22" fill="#FFCC4D"/></g></g></g></g><g id="g24" transform="translate(1.250000, 22.500000)"><g id="g26-Clipped"><mask id="mask-86" fill="white"><use xlink:href="#path-85"/></mask><g id="path30"/><g id="g26" mask="url(#mask-86)"><g transform="translate(-20.000000, -1.250000)"><g id="g32"><path d="M22.5 22.5L0 0 6.25 0 28.75 22.5 22.5 22.5 22.5 22.5Z" id="path34" fill="#292F33"/></g><g id="g36" transform="translate(13.750000, 0.000000)"><path d="M22.5 22.5L0 0 6.25 0 28.75 22.5 22.5 22.5 22.5 22.5Z" id="path38" fill="#292F33"/></g><g id="g40" transform="translate(27.500000, 0.000000)"><path d="M22.5 22.5L0 0 6.25 0 28.75 22.5 22.5 22.5 22.5 22.5Z" id="path42" fill="#292F33"/></g><g id="g44" transform="translate(41.250000, 0.000000)"><path d="M22.5 22.5L0 0 6.25 0 28.75 22.5 22.5 22.5 22.5 22.5Z" id="path46" fill="#292F33"/></g><g id="g48" transform="translate(55.000000, 0.000000)"><path d="M22.5 22.5L0 0 6.25 0 28.75 22.5 22.5 22.5 22.5 22.5Z" id="path50" fill="#292F33"/></g></g></g></g></g><g id="g52"><g id="g54-Clipped"><mask id="mask-88" fill="white"><use xlink:href="#path-87"/></mask><g id="path58"/><g id="g54" mask="url(#mask-88)" fill="#99AAB5"><g transform="translate(6.250000, 5.000000)"><path d="M6.25 0L0 0 0 17.5 6.25 17.5 6.25 0 6.25 0Z" id="path60"/><path d="M35 0L28.75 0 28.75 17.5 35 17.5 35 0 35 0Z" id="path62"/></g></g></g></g></g></g></g><g id="1" transform="translate(195.000000, 241.000000)"><g id="svg2"><g id="g10" transform="translate(23.750000, 23.750000) scale(1, -1) translate(-23.750000, -23.750000) "><g id="g12"><g id="g14-Clipped"><mask id="mask-90" fill="white"><use xlink:href="#path-89"/></mask><g id="path18"/><g id="g14" mask="url(#mask-90)"><g transform="translate(1.250000, 1.250000)"><g id="g20" transform="translate(5.000000, 0.000000)"><path d="M36.25 0L0 0C5 0 3.75 11.25 3.75 11.25 3.75 14.01 5.99 30 8.75 30L35 30C35 30 40 30 40 25L40 3.75C40 3.75 40 0 36.25 0" id="path22" fill="#99AAB5"/></g><g id="g24"><path d="M37.5 3.75C37.5 0 41.25 0 41.25 0L3.75 0C3.75 0 0 0 0 5L0 40C0 42.76 2.24 45 5 45L32.5 45C35.26 45 37.5 42.76 37.5 40L37.5 3.75 37.5 3.75Z" id="path26" fill="#CCD6DD"/></g><g id="g28" transform="translate(21.250000, 18.750000)"><path d="M12.5 1.25C12.5 0.56 11.94 0 11.25 0L1.25 0C0.56 0 0 0.56 0 1.25 0 1.94 0.56 2.5 1.25 2.5L11.25 2.5C11.94 2.5 12.5 1.94 12.5 1.25" id="path30" fill="#99AAB5"/></g><g id="g32" transform="translate(21.250000, 23.750000)"><path d="M12.5 1.25C12.5 0.56 11.94 0 11.25 0L1.25 0C0.56 0 0 0.56 0 1.25 0 1.94 0.56 2.5 1.25 2.5L11.25 2.5C11.94 2.5 12.5 1.94 12.5 1.25" id="path34" fill="#99AAB5"/></g><g id="g36" transform="translate(21.250000, 28.750000)"><path d="M12.5 1.25C12.5 0.56 11.94 0 11.25 0L1.25 0C0.56 0 0 0.56 0 1.25 0 1.94 0.56 2.5 1.25 2.5L11.25 2.5C11.94 2.5 12.5 1.94 12.5 1.25" id="path38" fill="#99AAB5"/></g><g id="g40" transform="translate(3.750000, 13.750000)"><path d="M30 1.25C30 0.56 29.44 0 28.75 0L1.25 0C0.56 0 0 0.56 0 1.25 0 1.94 0.56 2.5 1.25 2.5L28.75 2.5C29.44 2.5 30 1.94 30 1.25" id="path42" fill="#99AAB5"/></g><g id="g44" transform="translate(3.750000, 8.750000)"><path d="M30 1.25C30 0.56 29.44 0 28.75 0L1.25 0C0.56 0 0 0.56 0 1.25 0 1.94 0.56 2.5 1.25 2.5L28.75 2.5C29.44 2.5 30 1.94 30 1.25" id="path46" fill="#99AAB5"/></g><g id="g48" transform="translate(3.750000, 3.750000)"><path d="M30 1.25C30 0.56 29.44 0 28.75 0L1.25 0C0.56 0 0 0.56 0 1.25 0 1.94 0.56 2.5 1.25 2.5L28.75 2.5C29.44 2.5 30 1.94 30 1.25" id="path50" fill="#99AAB5"/></g><g id="g52" transform="translate(3.750000, 33.750000)"><path d="M27.5 0C27.5 0 30 0 30 2.5L30 5C30 5 30 7.5 27.5 7.5L2.5 7.5C2.5 7.5 0 7.5 0 5L0 2.5C0 2.5 0 0 2.5 0L27.5 0 27.5 0Z" id="path54" fill="#99AAB5"/></g><g id="g56" transform="translate(3.750000, 18.750000)"><path d="M12.5 0C12.5 0 15 0 15 2.5L15 10C15 10 15 12.5 12.5 12.5L2.5 12.5C2.5 12.5 0 12.5 0 10L0 2.5C0 2.5 0 0 2.5 0L12.5 0 12.5 0Z" id="path58" fill="#55ACEE"/></g></g></g></g></g></g></g></g><g id="1" transform="translate(152.000000, 191.000000)"><g id="svg2"><g id="g10" transform="translate(23.750000, 23.750000) scale(1, -1) translate(-23.750000, -23.750000) "><g id="g12"><g id="g14-Clipped"><mask id="mask-92" fill="white"><use xlink:href="#path-91"/></mask><g id="path18"/><g id="g14" mask="url(#mask-92)"><g transform="translate(7.500000, 10.000000)"><g id="g20"><path d="M32.5 5C32.5 2.24 30.26 0 27.5 0L5 0C2.24 0 0 2.24 0 5L0 31.25C0 34.01 2.24 36.25 5 36.25L27.5 36.25C30.26 36.25 32.5 34.01 32.5 31.25L32.5 5 32.5 5Z" id="path22" fill="#DD2E44"/></g><g id="g24" transform="translate(2.500000, 23.750000)"><path d="M0 0L0 5C0 5 0 7.5 2.5 7.5L25 7.5C25 7.5 27.5 7.5 27.5 5L27.5 0 0 0 0 0Z" id="path26" fill="#A0041E"/></g><g id="g28" transform="translate(2.500000, 21.250000)"><path d="M25 0L2.5 0C2.5 0 0 0 0 2.5L0 6.25 27.5 6.25 27.5 2.5C27.5 0 25 0 25 0" id="path30" fill="#292F33"/></g><g id="g32" transform="translate(7.500000, 7.500000)"><path d="M0 20L0 2.5C0 2.5 0 0 2.5 0L15 0C15 0 17.5 0 17.5 2.5L17.5 20 0 20 0 20Z" id="path34" fill="#E1E8ED"/></g></g></g></g></g><g id="g36" transform="translate(15.000000, 17.500000)"><g id="g38-Clipped"><mask id="mask-94" fill="white"><use xlink:href="#path-93"/></mask><g id="path42"/><g id="g38" mask="url(#mask-94)"><g transform="translate(-1.250000, -1.250000)"><g id="g44"><path d="M17.5 0L6.25 13.75 13.75 21.25 0 21.25 0 0 17.5 0 17.5 0Z" id="path46" fill="#CCD6DD"/></g><g id="g48" transform="translate(5.000000, 0.000000)"><path d="M11.25 0C11.25 0 2.5 11.25 1.25 12.5 0 13.75 1.25 15 1.25 15L8.75 22.5 10 21.25 2.5 13.75 12.5 1.25 11.25 0 11.25 0Z" id="path50" fill="#66757F"/></g></g></g></g></g><g id="g52"><g id="g54-Clipped"><mask id="mask-96" fill="white"><use xlink:href="#path-95"/></mask><g id="path58"/><g id="g54" mask="url(#mask-96)" fill="#66757F"><g transform="translate(18.750000, 1.250000)" id="path60"><path d="M11.25 8.75L0 8.75 0 0 11.25 0 11.25 8.75 11.25 8.75Z"/></g></g></g></g></g></g></g><g id="1" transform="translate(50.000000, 95.000000)"><g id="svg2"><g id="g10" transform="translate(23.750000, 23.750000) scale(1, -1) translate(-23.750000, -23.750000) "><g id="g12"><g id="g14-Clipped"><mask id="mask-98" fill="white"><use xlink:href="#path-97"/></mask><g id="path18"/><g id="g14" mask="url(#mask-98)"><g id="g20" transform="translate(0.000000, 21.250000)" fill="#FFAC33"><path d="M7.5 18.75L15 18.75C16.38 18.75 17.5 18.88 17.5 17.5L17.5 20C17.5 21.38 16.38 22.5 15 22.5L5 22.5C2.5 22.5 0.52 19.84 1.25 16.25 1.25 16.25 3.49 4.53 3.65 3.8 4.06 1.88 6.3 0 8.7 0L17.4 0C18.78 0 17.5 2.37 17.5 3.75L17.5 6.25C17.5 4.87 16.38 3.75 15 3.75L10 3.75C8.62 3.75 7.71 5.05 7.5 6.25 7.29 7.45 5.52 15.42 5.52 15.42 5.1 17.81 6.12 18.75 7.5 18.75" id="path22"/></g><g id="g24" transform="translate(28.515625, 21.250000)" fill="#FFAC33"><path d="M11.25 18.75L3.75 18.75C2.37 18.75 0.23 18.88 0.23 17.5L0.23 20C0.23 21.38 2.37 22.5 3.75 22.5L13.75 22.5C16.25 22.5 18.23 19.84 17.5 16.25 17.5 16.25 15.46 4.48 15.29 3.75 14.84 1.88 12.73 0 10.29 0L1.36 0C-0.03 0 0.23 2.37 0.23 3.75L0.23 6.25C0.23 4.87 2.37 3.75 3.75 3.75L8.75 3.75C10.13 3.75 11.04 5.05 11.25 6.25 11.46 7.45 13.23 15.42 13.23 15.42 13.65 17.81 12.63 18.75 11.25 18.75" id="path26"/></g><g id="g28" transform="translate(15.886250, 6.250000)" fill="#FFAC33"><path d="M11.25 12.5C11.25 21.2 7.86 12.5 7.86 12.5 7.86 12.5 4.11 21.2 4.11 12.5 4.11 3.8 0 0 0 0L7.86 0 15.36 0C15.36 0 11.25 3.8 11.25 12.5" id="path30"/></g><g id="g32" transform="translate(10.000000, 14.279125)" fill="#FFCC4D"><path d="M27.5 23.75C27.5 15.28 19.04 1.01 13.75 1.01 8.46 1.01 0 15.28 0 23.75 0 30.24 1.25 31.65 3.75 31.65 5.47 31.65 11.28 31.68 13.75 31.68 15.49 31.68 21.14 31.69 22.5 31.69 26.15 31.69 27.5 30.83 27.5 23.75" id="path34"/></g><g id="g36" transform="translate(11.250000, 2.500000)" fill="#C1694F"><path d="M23.75 2.5C23.75 1.12 23.88 0 22.5 0L2.5 0C1.12 0 1.25 1.12 1.25 2.5L1.25 3.75C1.25 5.13 2.55 6.25 3.85 6.25L21.25 6.25C22.55 6.25 23.75 5.13 23.75 3.75L23.75 2.5 23.75 2.5Z" id="path38"/></g><g id="g40" transform="translate(10.000000, 0.468750)" fill="#C1694F"><path d="M27.5 2.5C27.5 1.55 27.55 0.78 25.78 0.78L1.72 0.78C0.1 0.78 0 1.55 0 2.5L0 2.81C0 3.76 0.77 4.53 1.72 4.53L25.78 4.53C26.73 4.53 27.5 3.76 27.5 2.81L27.5 2.5 27.5 2.5Z" id="path42"/></g></g></g></g></g></g></g><g id="1" transform="translate(195.000000, 143.000000)"><g id="svg2"><g id="g10" transform="translate(23.750000, 23.750000) scale(1, -1) translate(-23.750000, -23.750000) "><g id="g12"><g id="g14-Clipped"><mask id="mask-100" fill="white"><use xlink:href="#path-99"/></mask><g id="path18"/><g id="g14" mask="url(#mask-100)"><g transform="translate(1.250000, 1.250000)"><g id="g20" transform="translate(8.124375, 14.355500)"><path d="M1.25 0C0.93 0 0.61 0.12 0.37 0.37 -0.12 0.86-0.12 1.65 0.37 2.13L20.39 22.15C20.88 22.64 21.67 22.64 22.16 22.15 22.64 21.67 22.64 20.87 22.16 20.39L2.13 0.37C1.89 0.12 1.57 0 1.25 0" id="path22" fill="#292F33"/></g><g id="g24" transform="translate(18.477750, 29.027750)"><path d="M1.25 0C0.98 0 0.7 0.09 0.47 0.27 -0.07 0.7-0.16 1.49 0.27 2.03 0.41 2.21 3.49 6.23 1.48 11.49 1.24 12.14 1.56 12.86 2.21 13.1 2.86 13.35 3.58 13.02 3.82 12.38 6.34 5.75 2.4 0.68 2.23 0.47 1.98 0.16 1.62 0 1.25 0" id="path26" fill="#292F33"/></g><g id="g28" transform="translate(23.339875, 24.168125)"><path d="M1.25 0C0.97 0 0.7 0.09 0.47 0.28 -0.07 0.71-0.16 1.49 0.27 2.03 0.44 2.24 4.57 7.27 11.93 5.43 12.6 5.27 13 4.59 12.84 3.92 12.67 3.25 11.99 2.84 11.32 3.01 5.54 4.45 2.36 0.63 2.22 0.46 1.98 0.16 1.61 0 1.25 0" id="path30" fill="#292F33"/></g><g id="g32" transform="translate(1.817000, 21.861625)"><path d="M6.25 0C4.88 0 3.37 0.23 1.78 0.84 1.13 1.08 0.81 1.81 1.05 2.45 1.3 3.1 2.02 3.42 2.66 3.18 7.94 1.17 11.96 4.26 12.13 4.39 12.67 4.81 13.46 4.72 13.88 4.18 14.31 3.64 14.22 2.86 13.69 2.43 13.52 2.3 10.57 0 6.25 0" id="path34" fill="#292F33"/></g><g id="g36" transform="translate(0.022625, 31.943375)"><path d="M10 0C7.71 0 3.79 0.6 0.57 4.17 0.11 4.68 0.15 5.47 0.66 5.93 1.18 6.39 1.97 6.35 2.43 5.84 6.21 1.66 11.2 2.57 11.41 2.61 12.08 2.74 12.74 2.3 12.88 1.62 13.01 0.95 12.58 0.29 11.9 0.16 11.81 0.14 11.09 0 10 0" id="path38" fill="#292F33"/></g><g id="g40" transform="translate(6.676000, 32.074000)"><path d="M5 0C4.92 0 4.84 0.01 4.75 0.03 4.08 0.16 3.64 0.82 3.77 1.49 3.82 1.71 4.72 6.7 0.54 10.47 0.03 10.94-0.01 11.73 0.45 12.24 0.91 12.75 1.7 12.79 2.22 12.33 7.48 7.57 6.28 1.27 6.22 1 6.1 0.41 5.58 0 5 0" id="path42" fill="#292F33"/></g><g id="g44" transform="translate(14.110750, 8.786625)"><path d="M2.5 0C1.94 0 1.43 0.38 1.29 0.95 -0.55 8.32 4.48 12.43 4.7 12.6 5.24 13.03 6.02 12.94 6.45 12.4 6.88 11.86 6.8 11.08 6.26 10.65 6.08 10.51 2.27 7.32 3.71 1.55 3.88 0.88 3.47 0.21 2.81 0.04 2.7 0.01 2.6 0 2.5 0" id="path46" fill="#292F33"/></g><g id="g48" transform="translate(3.554750, 1.041250)"><path d="M33.75 20C30.05 23.7 26.13 24.46 22.61 22.59 22.41 24.93 21.15 27.6 19.45 29.29 17.6 31.15 15.7 31.36 13.95 30.6 15.27 33.67 14.7 37.38 12.92 39.17 10.61 41.47 7.17 39.68 3.95 36.45 0.72 33.23-1.07 29.79 1.24 27.49 3.02 25.7 6.73 25.13 9.81 26.46 9.05 24.71 9.25 22.81 11.11 20.95 12.81 19.26 15.48 18 17.82 17.8 15.94 14.27 16.7 10.36 20.4 6.65 25.09 1.97 35.66-0.25 38.16 2.25 40.66 4.75 38.44 15.31 33.75 20" id="path50" fill="#292F33"/></g></g></g></g></g></g></g></g><g id="1" transform="translate(242.000000, 142.000000)"><g id="svg2"><g id="g10" transform="translate(24.000000, 24.500000) scale(1, -1) translate(-24.000000, -24.500000) translate(0.000000, 0.500000)"><g id="g12"><g id="g14-Clipped"><mask id="mask-102" fill="white"><use xlink:href="#path-101"/></mask><g id="path18"/><g id="g14" mask="url(#mask-102)"><g transform="translate(1.250000, 1.250000)"><g id="g20"><path d="M45 22.5C45 10.07 34.93 0 22.5 0 10.07 0 0 10.07 0 22.5 0 34.93 10.07 45 22.5 45 34.93 45 45 34.93 45 22.5" id="path22" fill="#CCD6DD"/></g><g id="g24" transform="translate(5.000000, 5.000000)"><path d="M35 17.5C35 7.84 27.17 0 17.5 0 7.84 0 0 7.84 0 17.5 0 27.17 7.84 35 17.5 35 27.17 35 35 27.17 35 17.5" id="path26" fill="#3B88C3"/></g><g id="g28" transform="translate(10.000000, 10.000000)"><path d="M25 12.5C25 5.6 19.4 0 12.5 0 5.6 0 0 5.6 0 12.5 0 19.4 5.6 25 12.5 25 19.4 25 25 19.4 25 12.5" id="path30" fill="#DD2E44"/></g><g id="g32" transform="translate(15.000000, 15.000000)"><path d="M15 7.5C15 3.36 11.64 0 7.5 0 3.36 0 0 3.36 0 7.5 0 11.64 3.36 15 7.5 15 11.64 15 15 11.64 15 7.5" id="path34" fill="#FFAC33"/></g></g></g></g></g></g></g></g><g id="1" transform="translate(102.000000, 143.000000)"><g id="svg2"><g id="g10" transform="translate(23.750000, 23.750000) scale(1, -1) translate(-23.750000, -23.750000) "><g id="g12"><g id="g14-Clipped"><mask id="mask-104" fill="white"><use xlink:href="#path-103"/></mask><g id="path18"/><g id="g14" mask="url(#mask-104)"><g transform="translate(1.250000, 0.000000)"><g id="g20" transform="translate(0.025625, 0.920375)"><path d="M37.5 2.5C35.55 0.55 32.38 0.55 30.43 2.5L2.15 30.78C0.19 32.74 0.19 35.9 2.15 37.86L7.45 43.16C9.4 45.11 12.57 45.11 14.52 43.16L42.8 14.87C44.76 12.92 44.76 9.76 42.8 7.8L37.5 2.5 37.5 2.5Z" id="path22" fill="#FFCC4D"/></g><g id="g24" transform="translate(9.393250, 36.641875)"><path d="M2.5 1.25C2.01 0.76 1.22 0.76 0.73 1.25 0.25 1.74 0.25 2.53 0.73 3.02L5.15 7.44C5.76 6.83 6.31 6.28 6.92 5.67L2.5 1.25 2.5 1.25Z" id="path26" fill="#292F33"/></g><g id="g28" transform="translate(16.464250, 34.874250)"><path d="M2.5 1.25C2.01 0.76 1.22 0.76 0.73 1.25 0.24 1.74 0.24 2.53 0.73 3.02L2.5 4.79C3.11 4.18 3.66 3.63 4.27 3.02L2.5 1.25 2.5 1.25Z" id="path30" fill="#292F33"/></g><g id="g32" transform="translate(18.232375, 27.803375)"><path d="M2.5 1.25C2.01 0.76 1.22 0.76 0.73 1.25 0.24 1.74 0.24 2.53 0.73 3.02L5.15 7.44C5.76 6.83 6.31 6.28 6.92 5.67L2.5 1.25 2.5 1.25Z" id="path34" fill="#292F33"/></g><g id="g36" transform="translate(25.302750, 26.035750)"><path d="M2.5 1.25C2.01 0.76 1.22 0.76 0.73 1.25 0.24 1.74 0.25 2.53 0.73 3.02L2.5 4.79C3.11 4.18 3.66 3.63 4.27 3.02L2.5 1.25 2.5 1.25Z" id="path38" fill="#292F33"/></g><g id="g40" transform="translate(27.071500, 18.964875)"><path d="M2.5 1.25C2.01 0.76 1.22 0.76 0.73 1.25 0.24 1.74 0.24 2.53 0.73 3.02L5.15 7.44C5.76 6.83 6.31 6.28 6.92 5.67L2.5 1.25 2.5 1.25Z" id="path42" fill="#292F33"/></g><g id="g44" transform="translate(35.909375, 10.125750)"><path d="M2.5 1.25C2.01 0.76 1.22 0.76 0.73 1.25 0.24 1.74 0.24 2.53 0.73 3.02L5.15 7.44 6.92 5.67 2.5 1.25 2.5 1.25Z" id="path46" fill="#292F33"/></g><g id="g48" transform="translate(34.141875, 17.197250)"><path d="M2.5 1.25C2.01 0.76 1.22 0.76 0.73 1.25 0.24 1.74 0.25 2.53 0.73 3.02L2.5 4.78 4.27 3.02 2.5 1.25 2.5 1.25Z" id="path50" fill="#292F33"/></g></g></g></g></g></g></g></g></g></svg>